<svg width="2229" height="807" viewBox="0 0 2229 807" fill="none" xmlns="http://www.w3.org/2000/svg">
<path d="M806.822 790.108L825.026 798.499C825.026 798.499 830.43 773.61 862.714 760.384C892.154 748.295 928.42 707.051 925.433 662.82C924.864 654.856 928.562 647.176 934.962 642.483C975.068 613.47 1018.73 551.035 964.828 526.004C943.068 514.2 914.624 536.671 912.207 569.097C909.789 601.523 898.98 610.768 894.714 615.461C890.589 620.012 851.905 645.896 840.955 679.176C830.146 712.598 806.822 790.108 806.822 790.108Z" fill="#91B820"/>
<path d="M916.615 551.462C914.34 556.866 912.918 562.839 912.491 569.097C910.073 601.523 899.265 610.767 894.998 615.461C890.874 620.012 852.19 645.896 841.239 679.175C838.679 686.855 835.55 696.953 832.137 707.904L841.666 720.703L876.367 675.904C876.367 675.904 875.087 647.887 893.434 639.211C917.184 627.976 952.739 618.163 916.615 551.462Z" fill="#0D3A25"/>
<path fill-rule="evenodd" clip-rule="evenodd" d="M830.43 801.059L820.333 796.365C829.577 776.312 844.51 763.939 863.994 747.726C873.523 739.762 884.332 730.802 895.994 719.566C908.936 707.051 920.882 689.273 933.255 670.785C951.459 643.478 970.801 614.608 996.401 598.679C1037.22 573.222 1080.59 595.835 1088.56 617.452C1103.21 656.989 1063.96 681.736 1021 691.549C1021 691.549 1009.06 715.442 1002.94 725.255C998.107 732.935 973.077 730.375 958.712 728.811C954.872 728.384 951.744 728.1 950.037 728.1C944.206 727.957 935.815 742.179 926.997 756.828C923.584 762.659 920.029 768.49 916.615 773.61C904.527 791.672 872.101 785.699 856.599 780.437C840.812 775.175 830.43 801.059 830.43 801.059ZM792.742 783.566L813.648 793.237L853.185 712.598C850.341 683.158 864.136 651.727 876.794 622.714C883.763 606.643 890.589 591.426 893.86 577.63C901.398 546.484 891.3 509.365 855.176 502.396C819.195 495.427 790.751 540.795 781.222 582.181C769.418 633.95 797.862 692.545 820.759 707.904L792.742 783.566Z" fill="#2D7323"/>
<path d="M1384.52 524.013C1361.62 580.332 1376.27 618.874 1386.37 638.358C1410.4 685.006 1470.56 684.295 1470.56 684.295L1480.52 679.175C1476.96 672.206 1478.24 661.682 1486.06 639.354C1493.89 617.025 1503.56 559.426 1447.81 537.666L1400.73 515.622L1384.52 524.013Z" fill="#91B820"/>
<path d="M1590.74 774.606C1566.27 787.263 1542.1 782.143 1519.06 759.388C1500.71 741.326 1485.78 714.731 1473.55 691.122L1401.02 550.893L1411.54 545.489L1484.07 685.718C1504.98 726.251 1517.64 741.326 1527.16 750.713C1536.27 759.672 1545.37 765.361 1554.33 767.779C1564.43 770.481 1574.52 769.201 1585.19 763.655L1590.74 774.606Z" fill="#325009"/>
<path fill-rule="evenodd" clip-rule="evenodd" d="M1528.02 589.15C1538.97 589.577 1549.49 590.004 1551.91 596.546L1563 591.284C1560.73 584.884 1563.15 576.777 1572.53 560.422C1581.92 544.067 1581.21 531.551 1570.4 527C1559.45 522.449 1554.47 531.551 1549.92 545.062C1549.92 545.062 1551.2 513.489 1551.91 505.098C1553.33 488.601 1523.32 484.476 1521.76 502.111C1515.79 490.307 1505.97 481.205 1493.74 488.885C1480.52 497.134 1496.3 518.04 1496.3 518.04C1481.09 515.622 1476.96 523.018 1477.81 532.262C1478.67 542.786 1486.06 545.915 1510.38 556.44C1515.22 558.573 1520.62 560.848 1526.88 563.693C1512.23 560.848 1498.01 562.982 1500 577.488C1501.14 588.013 1514.93 588.581 1528.02 589.15ZM1667.82 757.682C1667.82 757.682 1650.04 744.74 1650.9 723.264L1638.81 722.269C1636.96 739.62 1618.04 751.424 1618.04 751.424L1631.7 764.081C1631.7 764.081 1640.23 756.117 1642.93 747.584C1644.64 757.113 1653.31 766.499 1653.31 766.499L1667.82 757.682Z" fill="#325009"/>
<path d="M1524.04 524.582C1540.39 544.777 1557.17 565.684 1567.56 606.785C1573.1 628.545 1576.23 654.145 1577.37 684.864C1577.37 685.007 1577.37 685.149 1577.37 685.291C1578.36 684.153 1579.5 683.016 1580.64 681.878C1589.31 673.913 1600.83 670.074 1613.07 671.211C1638.95 673.487 1653.46 693.398 1650.9 723.264L1638.81 722.268C1639.8 710.606 1637.81 700.935 1633.12 694.251C1628.57 687.851 1621.46 684.153 1612.07 683.3C1603.25 682.589 1595 685.149 1588.89 690.838C1582.06 697.095 1578.08 706.766 1577.65 718.286C1577.37 744.455 1575.8 773.752 1572.96 806.747L1560.87 805.752C1568.41 717.717 1566.84 653.718 1555.75 609.772C1546.08 571.373 1530.72 552.315 1514.51 532.262L1524.04 524.582Z" fill="#91B820"/>
<path d="M699.019 654.572C695.322 652.865 692.335 650.163 689.633 647.318C686.219 643.621 680.815 642.199 675.837 642.767C672.709 643.194 669.722 644.332 666.593 644.332C660.762 644.19 656.069 639.923 652.087 635.799C648.105 631.674 643.98 626.981 638.291 625.701C633.029 624.563 627.34 626.412 622.363 624.563C618.95 623.283 616.39 620.439 614.541 617.31C612.692 614.181 611.412 610.768 609.705 607.497C608.852 605.932 607.999 604.368 606.576 603.23C605.296 602.092 603.448 601.666 601.741 601.666C595.625 601.381 589.226 601.097 584.106 597.826C579.128 594.555 576.141 588.866 575.146 583.035C574.719 580.902 574.577 578.768 574.008 576.635C573.439 574.502 572.301 572.51 570.453 571.373C569.173 570.519 567.75 570.235 566.47 569.524C563.484 567.817 561.777 564.546 561.208 561.133C560.639 557.72 560.355 554.306 560.924 550.893C562.488 541.222 553.813 537.524 553.813 537.524C553.813 545.915 548.124 545.915 546.275 545.204C544.426 544.635 543.004 543.071 542.151 541.364C540.729 538.804 540.444 535.675 540.871 532.689C541.298 529.702 542.435 527 543.858 524.44C547.84 517.187 553.955 510.929 556.231 503.107C557.084 500.12 557.511 496.991 558.079 493.863C558.648 490.734 559.644 487.747 561.493 485.187C563.342 482.769 566.755 481.632 569.884 480.778C572.728 480.067 575.43 478.361 577.279 476.085C579.412 473.383 580.408 470.112 581.688 466.983C582.968 463.854 584.675 460.725 587.377 458.876C590.79 456.601 595.057 456.743 599.181 457.17C602.168 457.454 605.154 457.739 607.999 457.028C611.412 456.174 614.256 453.756 617.101 451.623C619.945 449.632 623.358 447.783 626.914 448.21C628.478 448.494 630.043 449.205 631.465 449.916C635.163 451.908 638.434 454.752 641.705 457.454C645.545 460.725 655.784 456.743 666.878 464.992C673.277 469.827 677.829 476.369 681.526 483.907C685.082 490.876 689.917 488.6 697.028 495.427C703.712 501.685 704.708 512.351 707.41 518.182C710.255 524.298 715.09 522.591 723.339 530.271C732.583 538.804 731.73 547.337 732.299 555.728C732.725 562.555 738.272 565.115 743.676 569.808C764.298 587.444 757.756 607.497 757.756 607.497L774.253 622.714L743.107 664.669L725.472 651.585C725.472 651.727 709.543 659.549 699.019 654.572Z" fill="#2D7323"/>
<path d="M683.802 522.022H677.971L678.113 568.243C668.442 559.852 659.055 551.746 651.233 544.919C648.105 542.217 646.256 538.093 646.256 533.968L646.825 485.471H640.994L640.425 535.675C635.163 531.124 631.18 527.568 628.763 525.435L627.909 524.724C608.994 507.942 587.519 488.885 560.924 494.147L563.199 505.524C584.106 501.4 602.594 517.755 620.372 533.399L621.225 534.111C623.643 536.244 627.625 539.657 632.745 544.208L586.097 550.181L586.808 555.87L632.176 550.039C636.158 549.47 640.282 550.75 643.411 553.452C651.376 560.279 660.62 568.386 670.291 576.777L624.354 583.745L625.207 589.434L670.575 582.607C673.989 582.039 677.544 583.034 680.246 585.452C687.642 591.852 695.179 598.394 702.575 604.652L664.744 610.909L665.74 616.598L702.859 610.483C706.272 609.914 709.828 610.909 712.53 613.185C735.996 633.38 754.485 649.451 754.485 649.451L761.454 640.064C761.454 640.064 742.823 623.993 719.499 603.798C716.939 601.523 715.517 598.394 715.374 594.981L714.806 556.012L708.975 556.155L709.543 595.407C702.575 589.434 695.464 583.176 688.353 577.061C685.651 574.643 683.944 571.23 683.944 567.532L683.802 522.022Z" fill="#0D3A25"/>
<path d="M597.048 475.089C600.603 469.401 597.332 461.863 607.714 457.17C604.87 457.881 601.883 457.596 598.897 457.312C594.914 456.885 590.506 456.885 587.092 459.019C584.248 460.867 582.684 463.996 581.404 467.125C580.124 470.254 578.986 473.525 576.995 476.227C575.146 478.503 572.586 480.209 569.599 480.92C566.613 481.631 563.199 482.769 561.208 485.329C559.36 487.747 558.364 490.876 557.795 494.005C557.226 497.133 556.8 500.262 555.946 503.249C553.528 511.213 547.413 517.329 543.573 524.582C542.151 527.142 541.013 529.986 540.587 532.831C540.16 535.675 540.587 538.804 541.866 541.506C542.72 543.213 544.142 544.635 545.991 545.346C547.84 546.057 553.386 546.057 553.529 537.666C554.524 529.56 560.071 530.697 563.484 524.155C567.182 517.186 564.479 513.062 568.035 507.515C570.453 503.818 576.284 504.671 579.981 499.125C583.679 493.578 581.546 488.316 585.101 483.054C588.799 477.507 593.492 480.778 597.048 475.089Z" fill="#91B820"/>
<path d="M1563.57 662.963C1574.52 647.887 1550.77 636.794 1571.68 616.457C1588.46 600.101 1566.13 589.008 1584.91 570.662C1590.17 565.542 1588.18 556.297 1587.47 548.902C1586.75 541.506 1586.75 533.258 1591.59 527.711C1596.57 521.88 1605.81 520.458 1609.94 513.916C1612.78 509.365 1612.21 503.534 1612.5 497.987C1613.07 486.04 1617.9 474.236 1626.15 465.418C1634.4 456.601 1650.33 451.054 1662.27 450.343C1679.06 449.205 1693.7 457.596 1707.93 466.698C1721.01 474.947 1733.95 485.329 1738.65 500.12C1744.19 517.329 1736.94 539.8 1722.15 550.182C1717.6 553.453 1712.62 555.871 1708.07 559C1694.98 567.959 1700.1 580.617 1694.98 592.137C1692 598.963 1684.89 602.661 1678.06 605.506C1671.23 608.35 1662.13 610.768 1659.86 617.737C1652.18 642.767 1625.58 628.545 1613.35 648.598C1600.69 669.505 1585.05 651.869 1572.53 669.363L1563.57 662.963Z" fill="#2D7323"/>
<path d="M1553.62 706.197C1552.34 700.793 1550.77 695.673 1548.78 690.553C1557.03 686.287 1565.14 679.602 1572.39 669.22L1581.78 656.136C1594.01 639.212 1611.36 626.696 1631.41 620.581L1641.08 617.594L1639.52 612.332L1606.1 622.572L1609.23 618.305C1622.74 599.532 1642.08 585.737 1664.12 578.91L1666.68 578.199L1665.12 572.937L1635.54 582.039L1639.38 576.635C1653.17 557.435 1672.94 543.355 1695.55 536.386L1695.98 536.244L1694.42 530.982L1666.11 539.657L1691.57 504.387L1682.61 497.987L1656.87 533.684L1653.46 499.267L1647.91 499.836C1650.47 526.004 1643.36 552.315 1628 573.648L1626.01 576.492L1622.74 542.928L1617.19 543.497C1619.75 569.097 1612.78 594.839 1597.71 615.745L1597.42 616.03L1594.58 586.306L1589.03 586.874C1591.31 610.056 1585.05 633.238 1571.4 652.011L1563.57 662.82C1559.31 668.936 1553.76 675.336 1544.52 680.313C1540.82 672.776 1536.27 665.807 1531.15 659.407C1524.6 651.3 1518.2 646.18 1511.24 643.336C1501.71 639.496 1490.9 640.634 1483.79 646.18C1474.97 653.149 1472.41 666.802 1477.53 677.753C1481.8 686.713 1490.61 693.824 1501.85 697.095C1509.67 699.371 1518.06 699.655 1526.03 698.233C1530.01 697.522 1534.28 696.526 1538.68 694.962C1540.39 699.371 1541.81 704.064 1542.95 708.757C1544.52 715.157 1545.51 721.842 1546.08 728.526L1557.03 727.246C1556.46 720.135 1555.32 713.024 1553.62 706.197ZM1523.89 687.424C1517.49 688.704 1510.95 688.42 1504.84 686.571C1496.73 684.153 1490.33 679.318 1487.34 673.202C1484.36 666.802 1485.64 658.838 1490.47 654.998C1494.45 651.727 1501 651.3 1506.83 653.718C1510.67 655.282 1514.36 657.842 1518.06 661.825C1519.48 663.247 1520.91 664.811 1522.33 666.66C1526.88 672.207 1530.86 678.322 1534.13 685.007C1531.15 685.86 1527.73 686.713 1523.89 687.424Z" fill="#0D3A25"/>
<path d="M150.904 481.916C162.993 464.281 174.797 425.881 206.086 421.046C237.374 416.21 286.44 440.53 301.942 480.778C317.444 521.027 323.133 606.501 316.59 653.861C316.022 664.1 308.484 674.056 302.653 682.589C295.826 692.402 282.884 701.22 264.538 690.696L141.234 619.585C132.131 614.323 98.7098 589.15 105.963 546.484C113.501 501.542 142.229 498.271 150.904 481.916Z" fill="#FF0D90"/>
<path d="M137.678 431.286L151.189 439.108C146.638 446.93 142.514 458.165 146.638 464.992C149.056 468.974 156.309 472.672 159.153 467.694C169.251 448.779 181.766 424.743 206.228 420.904C209.926 431.712 210.21 445.365 210.21 445.365C210.21 445.365 200.539 462.432 178.068 473.24C186.886 492.298 186.886 496.707 186.886 496.707L182.051 505.098C182.051 505.098 170.673 506.093 157.02 500.262C155.456 511.213 152.469 522.022 152.469 522.022C152.469 522.022 128.718 534.253 111.367 527.142C120.612 504.813 136.54 497.702 145.927 488.316C116.63 478.218 127.865 444.796 137.678 431.286Z" fill="#325009"/>
<path fill-rule="evenodd" clip-rule="evenodd" d="M247.898 455.036C247.472 456.316 246.761 457.596 245.623 458.45C244.912 458.876 244.201 459.161 243.347 459.303C242.494 459.445 241.498 459.587 240.503 459.445C238.085 458.876 236.805 456.459 235.81 454.325C233.676 449.774 231.685 444.797 232.539 439.819C232.681 438.965 232.823 438.254 233.25 437.543C234.672 434.841 238.37 433.846 241.356 434.983C244.201 436.121 246.192 438.823 247.187 441.81C247.898 444.085 248.183 446.361 248.183 448.636C248.183 448.921 248.183 449.348 248.183 449.632C248.325 451.481 248.467 453.188 247.898 455.036ZM275.631 473.383C274.067 472.387 272.076 471.961 270.511 472.814C268.662 473.809 266.814 475.801 266.387 477.792C266.102 479.783 266.387 481.916 266.956 483.907C268.236 488.743 270.796 493.436 274.493 496.849C275.204 496.707 276.058 496.565 276.769 496.423C277.622 496.28 278.333 496.138 279.044 495.996C280.04 495.143 281.178 494.147 281.178 492.725C281.462 489.169 281.604 485.614 280.893 482.058C280.467 478.645 278.618 475.232 275.631 473.383ZM233.819 506.378C234.245 502.538 234.245 498.414 232.681 494.858C230.405 489.596 222.441 484.76 218.885 491.587C217.89 493.436 217.748 495.569 218.174 497.703C218.601 499.694 219.454 501.685 220.308 503.534C221.161 505.098 222.014 506.662 223.01 508.227C223.863 509.507 224.716 510.929 225.996 511.782C227.276 512.636 228.983 513.205 230.405 512.636C231.543 512.209 232.396 511.213 232.965 510.076C233.534 508.796 233.676 507.516 233.819 506.378ZM251.027 537.098C249.321 535.818 247.045 535.249 245.196 536.244C242.778 537.524 241.783 540.938 241.641 543.64C241.641 544.92 241.925 546.2 242.21 547.48C243.632 552.315 246.618 556.866 250.316 560.137C251.169 559.995 252.023 559.711 252.876 559.568C254.014 559.284 255.009 559.142 256.147 558.857C256.574 555.017 257 551.035 256.432 547.195C256.005 543.213 254.298 539.373 251.027 537.098ZM184.611 539.373C187.455 537.524 191.437 538.093 194.139 539.942C196.984 541.933 198.833 544.92 200.397 547.906C201.392 549.897 202.388 552.031 202.388 554.306C202.388 556.582 201.108 559 198.833 559.568C197.126 559.995 195.277 559.284 193.57 558.431C190.868 557.008 188.308 555.16 186.033 553.168C185.891 553.168 185.891 553.026 185.748 552.884V552.742C184.468 550.324 183.188 547.906 182.051 545.489C182.335 543.355 182.762 540.653 184.611 539.373ZM230.974 589.15C229.268 588.866 227.561 589.15 226.139 590.146C225.001 590.999 224.432 592.99 224.29 594.412C224.148 595.835 224.574 597.399 225.143 598.679C227.276 604.226 231.97 608.634 237.516 610.91C238.654 610.199 239.65 609.488 240.787 608.634C241.498 608.208 242.067 607.639 242.778 607.212C242.352 604.226 241.783 601.239 240.645 598.537C239.507 595.835 237.801 593.132 235.525 591.284C234.103 590.288 232.539 589.435 230.974 589.15ZM143.651 572.368C143.367 573.079 142.94 573.648 142.371 574.075C141.945 574.359 141.518 574.502 140.949 574.502C137.678 574.928 134.691 573.079 131.989 571.373C129.572 569.808 127.154 568.102 125.589 565.684C124.025 563.266 123.598 559.853 125.163 557.577C126.585 555.586 129.145 554.733 131.563 554.875C133.98 555.16 136.256 556.297 138.105 557.862C142.087 561.275 145.927 567.106 143.651 572.368ZM182.335 617.168C183.615 617.452 184.895 617.594 186.175 617.31C190.442 616.314 189.873 611.337 188.024 608.492C186.033 605.506 183.188 602.377 180.202 600.386C178.78 599.39 177.215 598.679 175.508 598.395C173.802 598.11 171.953 598.537 170.673 599.532C168.966 600.955 168.397 603.23 168.824 605.363C169.251 607.497 170.389 609.346 171.811 610.91C174.513 614.181 178.353 616.314 182.335 617.168ZM218.317 640.065C219.881 638.359 221.588 636.794 223.294 635.23C230.548 636.51 236.805 641.487 239.081 648.456C239.792 650.447 239.934 652.865 238.654 654.572C237.658 655.709 236.236 656.136 234.672 656.136C233.25 656.136 231.827 655.567 230.548 654.856C226.85 653.007 223.579 650.447 221.019 647.318C219.597 645.327 218.317 642.483 218.317 640.065ZM285.587 659.407C283.88 654.714 280.751 650.305 276.058 648.456C274.209 647.745 271.08 647.034 269.516 648.598C267.809 650.163 266.529 652.723 266.671 654.998C266.814 657.274 268.236 659.265 269.8 660.972C271.365 662.82 273.071 664.385 274.92 665.949C277.053 667.656 279.613 669.363 282.458 669.22C283.027 669.22 283.595 669.078 284.022 668.936C284.591 668.651 285.018 668.225 285.302 667.656C287.009 665.238 286.582 662.109 285.587 659.407ZM277.48 596.403C278.76 595.55 280.467 595.692 281.889 596.403C285.444 597.968 287.862 601.523 288.858 605.221C289.853 608.919 289.711 612.901 289.284 616.741C287.009 617.879 284.449 619.017 282.031 619.443C279.329 616.457 276.627 612.759 274.493 609.203C273.071 606.786 273.071 603.941 273.782 601.239C274.351 599.248 275.916 597.541 277.48 596.403ZM296.68 543.355C296.111 540.938 295.257 538.662 293.551 536.813C291.986 535.106 289.284 533.684 286.867 534.538C284.449 535.391 282.315 536.955 281.604 539.515C281.036 541.649 281.462 544.066 282.031 546.2C282.742 548.76 283.738 551.32 285.018 553.737C286.155 555.871 287.578 558.146 289.995 558.573C291.702 558.857 293.409 558.004 294.546 556.866C295.684 555.586 296.253 554.022 296.68 552.315C297.391 549.471 297.249 546.342 296.68 543.355Z" fill="#FBFAF9"/>
<path fill-rule="evenodd" clip-rule="evenodd" d="M381.301 374.113C352.146 377.242 332.235 396.868 324.27 430.148L323.702 432.708L319.293 429.152C299.524 413.224 273.64 421.188 264.396 445.792C261.836 452.477 261.125 457.312 260.698 471.107C260.272 485.329 259.56 490.023 256.432 500.689C249.178 525.436 250.885 546.484 261.694 561.133C264.538 564.973 264.68 565.542 263.4 566.822C259.56 570.519 252.449 586.164 250.032 595.977C241.356 631.105 254.441 653.718 287.293 660.545C303.791 663.958 326.973 655.994 334.652 644.047C336.501 641.203 337.639 640.776 343.043 641.203C362.243 642.767 373.194 647.034 390.545 659.692C408.322 672.776 420.838 676.9 447.717 679.176C493.939 683.016 537.742 661.398 550.969 628.119C559.928 605.648 549.831 571.657 530.489 559.426C528.356 558.146 526.791 556.724 526.934 556.44C527.076 556.155 528.071 554.022 529.067 551.604C531.485 546.2 531.342 546.342 534.045 539.515C536.747 532.404 537.6 529.987 539.022 523.871C539.591 521.169 540.729 517.329 541.582 515.053C545.991 502.111 545.707 484.903 541.013 475.658C533.049 460.299 521.671 454.894 497.778 455.321L487.254 455.463L487.681 453.757C488.534 450.485 487.965 438.681 486.685 435.837C483.983 429.721 476.588 423.89 467.628 420.761C447.29 413.65 442.171 409.81 435.628 397.437C426.811 381.224 404.767 371.553 381.301 374.113Z" fill="#91B820"/>
<path fill-rule="evenodd" clip-rule="evenodd" d="M291.987 421.614C281.604 423.179 271.507 430.574 267.667 439.25C267.24 440.245 266.103 442.663 265.249 444.654C262.12 451.338 261.552 454.894 260.983 468.832C260.414 485.614 259.987 488.174 255.578 504.102C252.592 514.769 251.454 534.253 253.303 543.071C254.156 547.479 258.849 557.008 262.12 561.559C263.543 563.408 264.538 565.115 264.538 565.257C264.538 566.11 268.805 568.955 278.902 574.928C300.946 587.87 318.582 603.514 325.266 616.314C328.395 622.287 331.381 629.398 333.23 634.661L335.079 640.492L335.932 638.501C338.492 632.385 340.626 624.136 343.043 611.336L344.466 603.799L343.612 597.257C342.19 586.448 338.492 575.212 332.946 564.688C324.413 548.475 318.013 525.009 318.013 509.649C318.013 486.04 323.275 467.409 332.804 457.596L337.212 453.045L336.359 451.481C335.932 450.627 335.221 449.347 334.652 448.636C334.226 447.925 332.804 445.792 331.666 443.801C328.821 439.25 324.128 432.992 323.702 433.134C323.559 433.134 321.568 431.854 319.435 430.005C310.617 422.468 302.369 420.05 291.987 421.614ZM482.134 456.174C475.734 458.307 467.628 461.578 463.077 463.854L458.668 466.129L462.792 470.538C493.085 502.111 482.703 547.622 438.615 576.635C427.949 583.603 420.98 587.443 402.065 596.83C385.567 605.079 384.572 605.648 374.901 613.612C365.799 621.007 361.39 625.843 356.412 633.381C350.154 642.767 350.154 641.772 357.265 643.478L363.239 644.9L365.514 642.909C372.91 636.083 383.007 632.243 399.078 629.967C408.038 628.687 410.313 628.403 412.447 628.545C438.331 629.256 444.73 628.83 458.384 625.701C481.85 620.154 495.787 607.923 514.703 576.066C517.12 571.941 519.823 567.533 520.676 566.395C521.529 565.257 522.098 564.119 522.098 563.977C522.098 563.835 522.951 562.413 523.805 560.848C524.8 559.284 525.511 558.004 525.511 557.862C525.511 557.719 526.08 556.582 526.649 555.159C529.351 549.755 535.751 532.689 536.889 527.711C537.6 524.866 539.022 519.747 540.018 516.333C549.262 487.32 540.018 463.712 517.12 457.738C509.583 455.747 491.236 454.894 486.543 456.316C485.974 456.458 485.69 456.316 485.974 455.747C486.543 454.752 486.401 454.752 482.134 456.174Z" fill="#325009"/>
<path fill-rule="evenodd" clip-rule="evenodd" d="M376.323 456.743C356.412 459.161 348.732 463.996 341.621 478.645C331.097 500.689 338.066 527.426 357.834 540.368C361.959 543.071 361.959 543.071 362.812 539.088C366.225 525.009 374.616 507.089 378.74 505.24C383.576 503.107 387.131 503.249 398.367 505.809C425.531 511.924 436.624 535.533 420.411 552.884L417.993 555.444L419.7 555.159C447.575 550.75 457.672 543.213 461.228 524.013C463.219 513.631 461.797 506.093 455.824 494.574C450.561 484.476 430.366 468.263 418.135 464.565C417.424 464.281 415.575 463.712 414.011 463.143C408.749 461.152 406.758 460.441 401.638 459.303C393.389 457.17 382.438 456.032 376.323 456.743Z" fill="#0D3A25"/>
<path fill-rule="evenodd" clip-rule="evenodd" d="M380.541 374.417C351.955 377.831 332.755 396.319 324.506 428.177L323.226 433.012C323.937 433.297 328.346 439.27 331.048 443.679C332.186 445.67 333.608 447.803 334.035 448.514C334.462 449.225 335.315 450.505 335.741 451.359L336.595 452.923L332.186 457.474C322.657 467.429 317.395 485.918 317.395 509.527C317.395 524.886 323.795 548.353 332.328 564.566C337.875 575.09 341.572 586.326 342.995 597.134L343.564 601.686C343.706 589.881 340.435 579.357 332.897 564.566C317.822 534.984 314.409 506.967 322.088 477.1C328.346 452.354 348.541 441.403 385.376 442.541C433.731 444.105 469.144 465.012 477.677 496.869C480.379 507.251 479.952 519.34 476.823 530.149C483.508 509.384 479.241 487.909 462.459 470.558L458.335 466.149L462.744 463.874C467.295 461.598 475.401 458.185 481.801 456.194C486.068 454.772 486.21 454.772 485.925 455.767C485.641 456.336 485.926 456.478 486.494 456.336C486.779 456.194 487.205 456.194 487.49 456.052C485.925 456.194 485.926 456.052 486.494 455.199C487.774 452.923 487.205 439.412 485.783 436.283C482.797 430.025 475.828 424.337 467.152 421.208C447.668 414.239 442.406 410.826 436.717 400.87C433.162 394.755 430.46 390.915 428.184 388.355C418.513 378.542 397.892 372.284 380.541 374.417ZM320.382 430.879L321.946 432.301C321.093 431.732 320.097 430.879 318.817 429.883C310.142 422.63 301.751 420.212 291.369 421.777C287.102 422.488 282.836 424.052 278.996 426.47C291.511 418.363 307.724 419.217 320.382 430.879ZM264.489 444.959C265.343 442.968 266.196 441.261 267.192 439.554C266.765 440.55 265.627 442.968 264.774 444.816C264.347 445.812 263.921 446.807 263.494 447.803C263.778 446.95 264.205 445.954 264.489 444.959ZM253.396 511.802C251.832 519.767 251.263 527.162 251.832 533.989C251.69 527.162 252.259 518.913 253.396 511.802ZM256.383 552.762C257.378 554.753 258.374 556.744 259.512 558.735C258.516 556.886 257.378 554.753 256.383 552.762ZM263.921 565.277C263.921 565.135 263.921 565.135 263.921 565.277C264.063 565.277 264.063 565.419 264.063 565.419C264.063 566.273 268.329 569.117 278.427 575.09C300.471 588.032 318.106 603.677 324.791 616.476C327.919 622.45 330.906 629.561 332.755 634.823L334.604 640.654L335.457 638.663C338.017 632.547 340.15 624.299 342.568 611.499L343.421 606.379C343.137 610.077 342.568 614.059 341.715 618.325C336.879 642.218 332.755 649.187 319.528 655.872C290.942 670.094 255.672 656.583 248.134 628.423C244.152 613.348 251.121 582.77 261.787 568.975C261.929 568.69 262.214 568.548 262.356 568.264C263.494 566.557 263.921 565.846 263.921 565.277ZM396.754 599.552C440.842 577.793 454.495 567.695 469.712 545.508C462.744 557.028 452.219 567.695 438.282 576.939C427.615 583.908 420.647 587.748 401.731 597.134C385.234 605.383 384.238 605.952 374.567 613.917C365.465 621.312 361.057 626.147 356.079 633.685C355.51 634.538 355.083 635.25 354.657 635.961C352.239 639.516 351.243 641.081 351.67 641.934C351.955 642.503 352.808 642.787 354.23 643.072C354.088 643.072 354.088 643.072 353.946 643.072C353.803 643.072 353.803 643.072 353.661 643.072H353.519C352.239 642.787 351.528 642.645 351.243 642.218C350.817 641.507 351.67 640.227 353.661 636.956L353.803 636.814C358.07 629.987 362.479 624.583 367.741 619.747C379.261 609.081 383.954 605.81 396.754 599.552ZM391.492 660.849C377.696 650.894 370.87 647.196 359.919 644.352L363.048 645.063L365.323 643.072C372.719 636.245 382.816 632.405 398.887 630.13C407.847 628.85 410.122 628.565 412.256 628.707C438.14 629.419 444.54 628.992 458.193 625.863C481.659 620.316 495.596 608.085 514.512 576.228C516.929 572.104 519.632 567.695 520.485 566.557C521.338 565.419 521.907 564.282 521.907 564.139C521.907 563.997 522.76 562.575 523.614 561.01C524.609 559.446 525.32 558.166 525.32 558.024C525.32 557.882 525.889 556.744 526.458 555.322C529.16 549.917 535.56 532.851 536.698 527.873C537.409 525.029 538.831 519.909 539.827 516.496C549.071 487.483 539.827 463.874 516.929 457.901C510.387 456.194 495.739 455.341 488.912 456.052H489.054C497.73 454.914 512.663 456.194 520.912 459.038C540.538 465.581 548.929 490.042 540.253 516.069C539.258 518.913 538.262 522.895 537.693 525.029C536.413 531.144 532.147 543.091 527.311 554.042C527.169 554.184 527.169 554.468 527.027 554.611C526.316 556.175 526.031 557.028 526.174 557.597C526.316 558.166 527.027 558.593 528.449 559.588C528.591 559.731 528.734 559.731 528.876 559.873C550.92 574.379 560.022 609.508 547.933 632.974C532.431 662.84 495.881 681.045 453.642 679.907C425.767 678.769 409.838 674.076 391.492 660.849ZM378.123 505.402C382.958 503.269 386.656 503.411 397.891 505.971C425.198 512.087 436.433 535.837 420.078 553.331L418.229 555.322C398.318 556.886 375.705 552.335 359.492 542.38C361.057 543.091 361.341 542.38 361.91 539.535C365.608 525.313 373.999 507.251 378.123 505.402Z" fill="#2D7323"/>
<mask id="mask0_1_51" style="mask-type:luminance" maskUnits="userSpaceOnUse" x="1791" y="0" width="674" height="674">
<path d="M2157.11 0.384297L1791.39 307.963L2098.96 673.688L2464.69 366.109L2157.11 0.384297Z" fill="white"/>
</mask>
<g mask="url(#mask0_1_51)">
<path d="M2194.11 481.382L2209.43 468.417C2209.43 468.417 2189.21 453.041 2190.91 418.067C2192.43 386.221 2170.35 335.986 2128.95 320.018C2121.43 317.115 2116.08 310.531 2114.58 302.697C2105.14 253.983 2067.11 188.263 2021.73 226.452C2001.85 241.231 2010.25 276.426 2038.57 292.291C2067.03 308.158 2070.76 321.983 2073.14 327.69C2075.51 333.398 2082.69 379.392 2108.25 403.343C2133.66 427.435 2194.11 481.382 2194.11 481.382Z" fill="#91B820"/>
<path d="M2024.15 281.086C2028.1 285.383 2032.9 289.261 2038.43 292.29C2066.75 308.156 2070.62 321.981 2073 327.689C2075.37 333.396 2082.55 379.391 2108.1 403.341C2114.03 408.934 2121.8 416.106 2130.27 423.71L2145.94 420.561L2120.03 370.154C2120.03 370.154 2094.22 359.428 2093.95 339.23C2093.59 312.916 2099.85 276.555 2024.15 281.086Z" fill="#0D3A25"/>
<path fill-rule="evenodd" clip-rule="evenodd" d="M2213.87 464.611L2205.28 471.798C2191.05 454.904 2186.07 436.092 2179.58 411.721C2176.4 399.607 2172.81 386.21 2167.52 370.808C2161.68 353.696 2150.59 335.405 2139.08 316.399C2122.09 288.249 2104.11 258.526 2100.36 228.772C2094.62 180.939 2133.39 151.374 2156.28 153.117C2198.35 156.574 2204.11 202.557 2194.95 245.722C2194.95 245.722 2211.57 266.616 2217.9 276.337C2222.81 284.055 2209.85 305.573 2202.5 317.889C2200.48 321.144 2198.89 323.834 2198.17 325.393C2195.57 330.635 2204.85 344.219 2214.41 358.374C2218.21 363.95 2222 369.668 2225.23 374.814C2236.61 393.392 2217.34 420.264 2206.02 432.123C2194.83 444.409 2213.87 464.611 2213.87 464.611ZM2182.09 491.386L2199.7 476.59L2143.35 406.745C2115.41 396.856 2092.71 371.079 2071.85 347.449C2060.29 334.275 2049.29 321.815 2038.12 312.911C2013.11 292.946 1975.04 286.392 1953.62 316.092C1932.19 345.793 1961.14 390.677 1994.65 416.823C2036.63 449.435 2101.64 448.377 2125.36 434.197L2182.09 491.386Z" fill="#2D7323"/>
</g>
<path d="M221.019 444.512C225.57 445.366 230.974 445.365 234.103 441.81C235.099 440.672 235.81 439.108 236.379 437.686C240.218 429.01 244.201 420.477 248.041 411.801C248.041 412.086 248.041 412.228 248.183 412.086C248.325 411.944 248.609 411.801 248.752 411.801C252.307 411.944 255.72 412.37 259.134 412.228C262.547 412.086 266.245 411.09 268.805 408.673C270.654 406.966 271.933 404.548 273.071 402.13C277.48 392.602 281.32 382.789 284.307 372.691C285.018 370.131 285.729 367.286 284.307 365.153C283.453 363.731 281.889 363.02 280.467 362.309C277.196 360.887 273.782 360.033 270.227 359.607C268.236 359.464 266.102 359.322 264.396 358.184C262.405 356.62 261.694 353.918 261.694 351.358C261.694 347.233 262.689 343.251 262.831 339.127C262.974 335.002 261.978 330.594 258.992 327.891C255.294 324.62 249.605 324.905 244.77 325.758C238.939 326.754 233.108 328.176 227.419 330.167C235.952 322.914 242.778 314.381 249.036 304.994C250.601 302.576 252.165 300.158 253.018 297.456C253.872 294.754 254.014 291.625 252.734 289.065C251.027 285.225 246.903 283.234 243.916 280.248C243.205 279.536 242.636 278.825 242.352 277.83C241.925 276.265 242.778 274.843 243.49 273.421C244.77 271.003 246.192 268.586 247.472 266.026C248.609 264.034 249.747 262.186 249.463 259.768C249.178 256.212 245.765 253.937 242.778 252.088C228.556 243.412 213.766 235.59 198.264 229.759C194.566 228.337 190.157 227.199 186.744 229.048C185.037 230.044 183.899 231.608 182.904 233.173C180.486 237.439 179.348 242.275 178.353 246.968C170.531 246.968 162.424 247.252 154.602 247.252C152.042 247.252 149.625 247.252 147.207 247.964C144.789 248.532 142.514 249.955 141.234 252.088C140.238 253.652 139.954 255.643 139.669 257.492C138.674 264.603 138.247 271.857 138.389 278.968C136.967 275.27 134.834 272.283 132.558 269.012C130.283 265.741 127.012 263.039 123.172 262.043C116.203 260.479 109.519 265.03 102.55 266.31C100.417 266.737 98.141 266.737 96.1499 265.599C93.3055 263.892 92.1678 260.052 89.3234 258.346C87.6167 257.35 85.6257 257.35 83.6346 257.492C78.9413 257.919 74.3903 259.199 69.9815 260.763C59.4572 264.319 49.2174 268.586 39.4042 273.705C39.4042 273.705 46.5152 290.772 48.2219 294.896C49.9285 299.021 46.7997 305.136 37.2709 308.834C27.6 312.532 15.2269 331.731 49.0752 354.06L62.5861 395.731L98.9943 433.277L97.9988 462.005L124.452 436.406L198.548 447.214L221.019 444.512Z" fill="#2D7323"/>
<path d="M261.267 387.624L260.698 381.793C214.903 386.059 182.762 389.473 161.002 393.739C192.433 378.095 236.663 356.051 247.33 349.651L244.343 344.673C230.832 352.638 161.855 386.771 135.687 399.713L141.802 388.193C163.42 348.655 178.069 334.718 203.668 314.807L225.143 298.025L221.588 293.474L172.238 331.02L211.348 257.919L201.108 252.372L161.713 326.185L166.975 262.897L161.144 262.47L158.727 291.625C156.167 323.056 147.207 353.491 132.274 381.224L125.021 394.877C124.878 394.166 118.478 304.425 120.043 283.519L114.212 283.092C113.074 298.167 114.923 333.865 116.772 362.451C109.376 341.544 97.1455 314.665 79.368 279.394L74.1059 281.954C93.1633 319.5 105.679 347.518 112.647 368.566C109.945 364.726 106.674 360.744 102.977 356.904C87.6168 340.549 66.2838 326.042 51.493 317.936L48.6486 323.056C63.0128 330.878 83.7768 344.958 98.5677 360.886C99.9899 362.451 101.554 364.3 102.834 366.433C115.634 385.491 116.487 409.952 105.679 430.148L66.2838 503.818L76.5236 509.365L115.35 436.69C125.021 418.628 144.362 407.961 164.842 409.526C184.184 410.948 206.655 415.926 224.574 424.317L226.992 419.055C193.002 403.268 167.402 400.993 152.042 401.846L261.267 387.624Z" fill="#0D3A25"/>
<path d="M83.2079 513.488C113.358 441.81 127.723 442.805 134.691 446.076C153.749 454.894 140.807 467.693 153.038 473.382L176.931 484.475C176.931 484.475 177.357 482.2 182.477 472.671C187.455 463.142 191.722 466.84 200.255 472.813C226.423 491.018 243.916 449.205 224.148 440.956C153.607 404.121 113.358 434.13 102.408 448.209C122.887 404.121 81.7857 357.473 45.9463 346.664C10.107 335.856 0.578247 382.646 0.578247 382.646L22.7645 393.028C22.7645 393.028 28.3111 385.49 35.991 389.188C43.813 392.886 29.7333 416.21 29.7333 416.21L59.5994 430.147C59.5994 430.147 64.1505 410.521 78.088 416.921C103.403 428.725 80.7902 467.693 61.7327 503.675L83.2079 513.488Z" fill="#91B820"/>
<path d="M2052.6 630.662C2053.51 601.935 2053.55 585.011 2035.09 568.336C2002.01 538.122 2023.08 524.224 2013.3 509.841C2006.63 500.015 1981.34 486.882 1976.55 466.536C1967.94 429.399 2021.45 411.867 2041.01 446.748C2049.94 462.694 2045.5 479.183 2050.74 489.576C2055.84 499.967 2061.52 503.249 2063.21 511.786C2065.05 521.461 2059.31 543.209 2060.44 551.603C2061.84 561.987 2069.79 568.829 2070.04 584.332C2076.06 561.588 2095.1 495.776 2135.79 487.463C2153.15 483.941 2167.23 486.813 2173.9 491.376C2181.43 496.511 2181.84 505.472 2189.94 507.62C2200.03 510.342 2218.38 511.373 2213.07 532.838C2207.77 554.303 2185.6 548.287 2185.6 548.287C2176.64 545.852 2173.66 544.14 2168.68 544.13C2163.7 543.979 2158.86 549.232 2149.62 547.934C2140.23 546.636 2134 533.113 2114.07 544.31C2094.28 555.507 2084.55 583.08 2080.9 634.272L2065.48 663.967L2052.6 630.662Z" fill="#2D7323"/>
<path d="M2202.84 679.59C2183.67 664.762 2161.88 679.084 2144.96 676.634C2130.74 674.616 2092.79 663.877 2074.39 691.859C2074.39 691.859 2077.53 612.079 2120.33 615.006C2138.82 616.321 2146.62 628.425 2145.74 640.512C2144.86 652.741 2149.83 660.146 2171.3 661.61C2203.58 663.947 2203.77 640.481 2202.36 629.812C2201.8 626.255 2202.09 622.7 2202.95 619.146C2207.4 599.671 2202.16 588.852 2187.37 587.828C2151.96 585.342 2162.22 576.971 2137.33 575.217C2114.01 573.607 2078.56 591.317 2066.51 645.764C2066.51 645.764 2063.24 571.377 1983.34 560.557C1944.8 555.363 1910.76 581.608 1908.57 615.026C1907.1 635.787 1915.62 642.203 1923.73 642.219C1941.79 642.111 1937.42 625.179 1946.66 623.774C1952.07 622.931 1956.32 630.193 1966 628.22C1979.23 625.543 1980.11 610.328 1994.05 611.919C2010.11 613.798 1999.28 628.284 2013.77 635.992C2025.56 642.272 2035.53 634.896 2044.2 639.321C2052.44 643.604 2056.54 656.98 2053.94 677.313C2037.47 659.646 2002.65 648.486 1960.84 650.112C1919.02 651.739 1919.81 684.451 1922.43 728.26L1955.28 730.598C1958.93 679.406 1976.44 668.773 1993.94 668.949C2013.28 669.128 2010.83 684.341 2023.48 689.059C2036.13 693.634 2037.85 685.673 2045.95 688.391C2051.64 690.25 2052.48 695.088 2052.33 700.065L2049.84 737.322L2068.89 738.638C2068.89 738.638 2065.57 693.975 2106.95 693.77C2163.56 693.594 2155.07 744.777 2155.07 744.777L2182.23 746.678C2182.23 746.678 2197.02 747.987 2200.45 735.762C2205.75 717.284 2224.57 696.271 2202.84 679.59Z" fill="#325009"/>
<path fill-rule="evenodd" clip-rule="evenodd" d="M2026.36 446.863C2037.31 447.31 2047.84 447.757 2050.24 454.304L2061.34 449.063C2059.08 442.659 2061.51 434.557 2070.93 418.22C2080.35 401.882 2079.66 389.365 2068.72 384.793C2057.78 380.221 2052.78 389.314 2048.21 402.816C2048.21 402.816 2049.55 371.246 2050.27 362.856C2051.73 346.361 2021.73 342.179 2020.13 359.811C2014.18 347.996 2004.38 338.875 1992 346.531C1978.9 354.754 1994.5 375.691 1994.5 375.691C1979.29 373.244 1975.15 380.631 1975.98 389.877C1976.96 400.404 1984.21 403.546 2008.51 414.117C2013.34 416.26 2018.74 418.546 2024.99 421.402C2010.35 418.53 1996.12 420.636 1998.08 435.146C1999.49 445.673 2013.28 446.269 2026.36 446.863ZM2165.84 615.662C2165.84 615.662 2148.09 602.686 2148.98 581.212L2136.9 580.194C2135.01 597.541 2116.08 609.309 2116.08 609.309L2129.7 621.993C2129.7 621.993 2138.25 614.045 2140.97 605.517C2142.66 615.049 2151.32 624.452 2151.32 624.452L2165.84 615.662Z" fill="#325009"/>
<path d="M2022.5 382.287C2038.82 402.513 2055.56 423.452 2065.87 464.574C2071.37 486.344 2074.45 511.95 2075.53 542.671C2075.53 542.814 2075.53 542.956 2075.53 543.098C2076.53 541.962 2077.67 540.827 2078.81 539.691C2087.5 531.743 2099.02 527.926 2111.25 529.087C2137.13 531.412 2151.6 551.351 2148.98 581.212L2136.9 580.193C2137.91 568.533 2135.94 558.858 2131.26 552.165C2126.72 545.756 2119.62 542.045 2110.23 541.174C2101.42 540.446 2093.16 542.99 2087.04 548.667C2080.2 554.911 2076.2 564.575 2075.75 576.094C2075.41 602.262 2073.79 631.556 2070.89 664.546L2058.66 663.527C2066.36 575.507 2064.92 511.505 2053.91 467.537C2044.32 429.119 2028.99 410.032 2012.82 389.948L2022.5 382.287Z" fill="#91B820"/>
<path d="M1916.55 491.001C1898.31 467.671 1878.72 415.622 1835.03 411.683C1791.34 407.744 1725.77 445.498 1707.85 502.665C1690.08 559.688 1689.54 678.164 1702.54 742.921C1704.36 756.988 1715.41 770.132 1724.45 781.442C1734.79 794.449 1753.36 805.545 1777.7 789.291L1941.72 680.255C1953.75 672.2 1997.7 634.608 1984.18 576.113C1969.92 514.779 1929.94 512.946 1916.55 491.001Z" fill="#FF0D90"/>
<path d="M1930.52 419.927L1912.55 431.866C1919.45 442.197 1926.11 457.507 1921.07 467.358C1918.12 473.069 1908.35 478.831 1904.04 472.321C1888.49 447.122 1869.04 414.841 1835.03 411.825C1830.88 427.074 1831.59 445.985 1831.59 445.985C1831.59 445.985 1846.41 468.771 1878.51 481.757C1867.9 508.859 1868.37 514.971 1868.37 514.971L1875.71 526.01C1875.71 526.01 1891.64 526.317 1909.92 517.22C1913.02 532.13 1917.96 546.884 1917.96 546.884C1917.96 546.884 1951.78 561.706 1975.31 550.436C1960.72 520.395 1938.04 512.031 1924.15 499.904C1963.57 482.968 1945.02 437.738 1930.52 419.927Z" fill="#325009"/>
<path fill-rule="evenodd" clip-rule="evenodd" d="M1780.23 462.299C1780.81 464.144 1781.96 465.842 1783.67 466.682C1784.67 467.243 1785.67 467.52 1786.81 467.654C1788.09 467.787 1789.37 467.919 1790.65 467.625C1793.91 466.748 1795.59 463.179 1796.85 460.041C1799.36 453.622 1801.73 446.493 1800.11 439.821C1799.82 438.685 1799.53 437.692 1798.95 436.7C1796.79 433.019 1791.52 432.063 1787.69 433.94C1783.87 435.818 1781.34 439.677 1780.23 443.81C1779.4 446.945 1779.28 450.217 1779.31 453.346C1779.31 453.772 1779.31 454.199 1779.32 454.768C1779.34 457.47 1779.36 459.888 1780.23 462.299ZM1743.46 490.024C1745.44 488.587 1748.13 487.713 1750.42 488.834C1752.99 490.095 1755.85 492.633 1756.44 495.473C1757.03 498.313 1756.62 501.161 1756.08 504.01C1754.71 510.847 1751.63 517.412 1746.83 522.568C1745.69 522.434 1744.69 522.3 1743.56 522.166C1742.42 522.032 1741.28 521.899 1740.28 521.764C1738.85 520.637 1737.28 519.369 1736.98 517.522C1736.37 512.691 1735.77 507.718 1736.44 502.877C1737.26 497.751 1739.5 492.898 1743.46 490.024ZM1804.07 531.952C1803.18 526.554 1802.85 521.01 1804.66 515.876C1807.31 508.461 1817.92 500.986 1823.54 510.188C1824.98 512.595 1825.43 515.721 1825.02 518.568C1824.76 521.415 1823.64 524.125 1822.52 526.836C1821.55 529.119 1820.43 531.403 1819.16 533.546C1818.04 535.403 1816.91 537.403 1815.22 538.695C1813.52 540.13 1811.25 540.858 1809.11 540.163C1807.54 539.606 1806.25 538.336 1805.39 536.778C1804.81 535.218 1804.37 533.514 1804.07 531.952ZM1782.93 575.916C1785.19 574.05 1788.31 572.889 1791.02 574.148C1794.45 575.687 1796.19 580.225 1796.5 584.063C1796.66 585.911 1796.38 587.62 1795.97 589.472C1794.46 596.31 1790.81 602.737 1785.87 607.61C1784.59 607.477 1783.45 607.201 1782.31 607.068C1780.74 606.795 1779.32 606.521 1777.61 606.392C1776.72 600.994 1775.68 595.597 1776.21 590.189C1776.59 584.781 1778.69 579.219 1782.93 575.916ZM1874.93 573.235C1870.93 570.847 1865.53 572.025 1861.71 574.898C1858.04 577.77 1855.79 582.054 1853.83 586.335C1852.57 589.189 1851.32 592.328 1851.63 595.454C1851.79 598.582 1853.95 601.837 1856.94 602.383C1859.36 602.934 1861.91 601.635 1864.04 600.339C1867.72 598.036 1870.97 595.451 1874.07 592.441C1874.22 592.44 1874.36 592.297 1874.36 592.155C1874.36 592.155 1874.36 592.013 1874.5 592.011C1876.04 588.587 1877.58 585.162 1878.97 581.596C1878.38 578.471 1877.5 574.78 1874.93 573.235ZM1815.31 645.932C1817.58 645.346 1820.14 645.611 1822 646.877C1823.72 648.002 1824.59 650.555 1824.89 652.687C1825.19 654.675 1824.78 656.812 1824.08 658.666C1821.58 666.507 1815.51 672.953 1808 676.565C1806.43 675.723 1804.86 674.739 1803.43 673.754C1802.43 673.193 1801.57 672.488 1800.57 671.927C1800.97 667.8 1801.51 663.671 1802.9 659.678C1804.15 655.687 1806.25 651.973 1809.36 649.247C1811.06 647.812 1813.04 646.518 1815.31 645.932ZM1934.41 615.314C1934.84 616.164 1935.41 617.013 1936.27 617.575C1936.84 617.855 1937.56 617.992 1938.27 618.129C1942.82 618.522 1946.78 615.647 1950.46 613.06C1953.57 610.619 1956.82 608.176 1958.79 604.606C1960.75 601.178 1961.15 596.482 1958.7 593.371C1956.69 590.684 1952.99 589.716 1949.72 590.309C1946.45 590.903 1943.48 592.774 1941.08 595.068C1935.71 599.801 1930.94 608.228 1934.41 615.314ZM1884.83 680.682C1883.13 681.121 1881.29 681.562 1879.58 681.29C1873.6 680.339 1873.97 673.368 1876.36 669.225C1878.89 664.94 1882.55 660.219 1886.51 657.202C1888.35 655.766 1890.47 654.613 1892.74 654.027C1895.01 653.583 1897.58 653.848 1899.58 655.255C1902.01 656.944 1903.03 660.207 1902.62 663.197C1902.36 666.186 1900.82 668.9 1898.99 671.189C1895.32 675.625 1890.37 679.076 1884.83 680.682ZM1837.16 715.315C1834.87 713.057 1832.44 711.084 1829.72 709.113C1819.93 711.462 1811.59 718.921 1808.96 728.754C1808.27 731.603 1808.01 735.019 1810.02 737.137C1811.45 738.548 1813.59 739.101 1815.58 738.944C1817.57 738.787 1819.56 737.919 1821.26 736.911C1826.21 734.171 1830.45 730.157 1833.83 725.581C1835.94 722.72 1837.33 718.727 1837.16 715.315ZM1745.96 747.858C1747.76 741.16 1751.84 734.871 1758.07 731.838C1760.62 730.539 1764.74 729.512 1767.17 731.485C1769.6 733.458 1771.62 736.998 1771.64 740.127C1771.52 743.257 1769.84 746.114 1767.87 748.547C1765.75 751.123 1763.5 753.557 1761.09 755.851C1758.27 758.432 1754.87 760.875 1751.04 761.046C1750.32 761.052 1749.47 761.058 1748.9 760.778C1748.04 760.5 1747.47 759.793 1746.9 759.086C1744.46 755.976 1744.85 751.564 1745.96 747.858ZM1751.56 660.063C1749.7 658.939 1747.43 659.383 1745.45 660.394C1740.63 662.848 1737.68 667.848 1736.58 673.118C1735.48 678.389 1736.09 683.789 1736.98 689.044C1740.12 690.443 1743.83 691.837 1747.25 692.238C1750.77 687.803 1754.14 682.515 1756.67 677.519C1758.49 673.949 1758.18 670.112 1756.87 666.424C1756.14 663.869 1753.84 661.468 1751.56 660.063ZM1720.59 588.472C1721.13 585.197 1722.24 581.776 1724.36 579.2C1726.47 576.624 1730.01 574.464 1733.29 575.435C1736.71 576.405 1739.85 578.372 1741.02 581.919C1742.03 584.898 1741.63 588.172 1740.94 591.306C1740.12 595.01 1739.01 598.574 1737.47 601.999C1736.21 604.995 1734.25 608.281 1730.98 609.017C1728.71 609.461 1726.28 608.626 1724.56 606.932C1722.85 605.38 1721.83 603.112 1721.25 600.983C1720.08 596.867 1719.91 592.602 1720.59 588.472Z" fill="#FBFAF9"/>
</svg>
