<svg width="88" height="109" viewBox="0 0 88 109" fill="none" xmlns="http://www.w3.org/2000/svg">
<path d="M52.6884 1.6425L52.061 1.56293L51.8407 3.30424L51.3327 3.23998L51.553 1.49866L50.9287 1.4191L50.9807 1.01514L52.7374 1.23854L52.6884 1.6425Z" fill="white"/>
<path d="M52.9821 1.26611L53.6829 1.35486L53.9124 2.71976C53.9308 2.82687 53.9308 2.9095 53.9308 2.986H53.9369C53.9552 2.91256 53.9828 2.82993 54.0256 2.72588L54.5704 1.46503L55.2804 1.55378L55.008 3.70211L54.5428 3.64397L54.7295 2.18114C54.7387 2.09852 54.754 2.02201 54.7723 1.93938H54.7632C54.7509 2.00059 54.7173 2.08627 54.6928 2.14136L54.0715 3.58276L53.6431 3.52768L53.383 1.97304C53.3707 1.91184 53.3615 1.82003 53.3646 1.76188H53.3554C53.3524 1.83533 53.3493 1.91796 53.3371 2.00365L53.1504 3.46647L52.7158 3.41139L52.9821 1.26611Z" fill="white"/>
<path d="M73.1991 57.4197C59.7185 50.381 43.1041 55.6172 36.0807 69.1101C32.9592 75.1113 32.2645 81.7246 33.6264 87.8391C33.8406 86.0366 34.3639 84.2494 35.2453 82.5326C39.1319 75.0685 48.3281 72.1734 55.7891 76.0631C63.2532 79.9497 66.1451 89.1581 62.2586 96.6222C58.8249 103.205 52.0708 106.88 43.0337 105.46C58.8249 112.882 77.8539 108.055 84.8773 94.5626C91.9006 81.0697 86.6798 64.44 73.1991 57.4014V57.4197Z" fill="white"/>
<path d="M54.7939 50.0137C66.472 46.7636 70.0893 39.6576 70.7136 32.5914C71.7632 20.7143 62.0315 12.8402 53.5024 11.9741C26.8441 9.24738 11.1234 34.3633 11.9037 56.2261C12.3873 69.9179 16.6135 83.3251 29.8677 96.8057C26.8594 90.9727 21.51 56.1404 54.8122 49.9984L54.7939 50.0137Z" fill="white"/>
<path d="M19.7687 100.732C20.6745 99.8842 21.8497 99.9974 22.8167 101.02L23.7715 102.042L25.6292 100.307L26.4493 101.173L21.6569 105.665L19.8819 103.765C18.9271 102.743 18.8904 101.552 19.7687 100.732ZM20.6439 101.641C20.1482 102.097 20.1726 102.749 20.6959 103.315L21.5039 104.178L23.1075 102.672L22.2995 101.806C21.7762 101.24 21.1397 101.182 20.6317 101.638L20.6439 101.641Z" fill="white"/>
<path d="M19.0531 96.8392L19.7754 97.7298L21.8105 96.068L22.5603 96.9861L17.474 101.127L15.8123 99.0763C14.7412 97.7604 15.0717 96.7596 15.9041 96.0772C16.5131 95.5814 17.3455 95.4376 18.1748 96.0129L19.3592 93.0444L20.1885 94.0605L19.0531 96.8392ZM19.0991 98.2929L18.3095 97.3319C17.7464 96.6403 17.1802 96.6648 16.6998 97.0534C16.2193 97.4543 16.0816 97.9776 16.6569 98.6693L17.4465 99.6302L19.0991 98.2929Z" fill="white"/>
<path d="M16.4542 94.6423C14.6945 95.8419 12.9317 95.5604 11.879 93.9966C10.8263 92.4328 11.218 90.7006 12.9777 89.504C14.7251 88.3197 16.5001 88.586 17.5528 90.1498C18.6055 91.7136 18.1863 93.4702 16.4542 94.6423ZM13.6723 90.5323C12.3901 91.3984 12.0045 92.4787 12.6686 93.4641C13.3204 94.4342 14.4803 94.4801 15.7625 93.614C17.0172 92.7602 17.4181 91.6524 16.7663 90.6823C16.1022 89.7091 14.9546 89.6662 13.6723 90.5323Z" fill="white"/>
<path d="M9.47091 90.006L8.35084 87.9311C7.44193 86.2327 7.99891 84.5066 9.69737 83.5824C11.4081 82.6582 13.2075 83.1081 14.1318 84.8188L15.2518 86.8814L9.48621 90.006H9.47091ZM13.3269 85.2931C12.721 84.17 11.4356 84.0537 10.288 84.675C9.12204 85.3084 8.57118 86.3734 9.18936 87.5088L9.73104 88.5065L13.8563 86.2786L13.3269 85.2931Z" fill="white"/>
<path d="M5.78634 82.7313L9.67292 81.1308C10.5267 80.7789 10.8634 80.0842 10.5114 79.2304C10.1595 78.3643 9.42198 78.1103 8.56815 78.4592L4.68157 80.0597L4.22559 78.9549L8.16726 77.3299C9.53827 76.7699 10.7961 77.2871 11.4326 78.8417C12.0691 80.3933 11.5397 81.6388 10.1687 82.2111L6.22702 83.8361L5.77104 82.7313H5.78634Z" fill="white"/>
<path d="M6.86039 76.6048C4.89568 77.177 3.2523 76.4977 2.70756 74.6003C2.25158 73.0395 2.88812 71.8797 4.17651 71.3196L4.68758 72.4397C3.82151 72.8039 3.41449 73.4986 3.65626 74.3616C3.97453 75.4633 5.09766 75.8366 6.5054 75.4174C7.87029 75.0103 8.68433 74.1045 8.34158 72.963C8.09982 72.1551 7.40513 71.7634 6.47479 71.8613L6.36768 70.6555C7.69892 70.5515 8.84347 71.1482 9.30251 72.6815C9.88703 74.6615 8.75778 76.0264 6.86345 76.5864L6.86039 76.6048Z" fill="white"/>
<path d="M6.49604 65.1439L7.41413 64.9756L8.22817 69.2141L1.80766 70.4566L1.00586 66.2854L1.92395 66.1018L2.49623 69.1039L4.26202 68.7642L3.71423 65.9151L4.61702 65.7468L5.16481 68.5959L7.09586 68.2164L6.49604 65.1439Z" fill="white"/>
<path d="M3.61049 60.8657C1.58763 60.9789 0.109501 59.9017 0.00851138 57.937C-0.0832977 56.1651 0.975567 55.3755 1.85081 55.1643L2.12318 56.3334C1.55396 56.4711 0.889878 56.8965 0.948024 57.9064C1.01229 59.1121 2.04667 59.7334 3.54316 59.6477C4.98456 59.5742 5.98222 58.8826 5.90571 57.6218C5.82921 56.2905 4.73056 56.0151 4.13686 56.0396L4.01139 56.0365L4.1032 57.8084L3.18817 57.8543L3.02903 55.0021L6.54838 54.8032L6.59428 55.6479L5.59356 55.8009C6.30661 56.0671 6.81156 56.7741 6.85747 57.7564C6.96152 59.5559 5.61804 60.7096 3.59519 60.8228L3.61049 60.8657Z" fill="white"/>
<path d="M4.09676 51.2502L4.02637 52.3948L6.64905 52.56L6.57561 53.7474L0.0449219 53.3282L0.210178 50.6902C0.323409 49.007 1.23538 48.4898 2.31261 48.5449C3.0991 48.5939 3.80603 49.0529 4.01719 50.0292L6.90306 48.652L6.81431 49.9649L4.09676 51.2349V51.2502ZM3.14195 52.3458L3.21539 51.1033C3.27966 50.2067 2.84816 49.8486 2.22692 49.8058C1.60568 49.7629 1.14051 50.069 1.09155 50.9656L1.0028 52.2081L3.12971 52.3458H3.14195Z" fill="white"/>
<path d="M3.68992 47.8377C1.58443 47.4521 0.528625 46.026 0.868319 44.1684C1.20801 42.3108 2.69838 41.3529 4.80387 41.7263C6.88181 42.0996 7.96516 43.538 7.62547 45.3956C7.28883 47.2562 5.75562 48.211 3.68992 47.8377ZM4.58047 42.9534C3.06562 42.678 2.02817 43.1891 1.80477 44.3459C1.59361 45.5027 2.38929 46.3534 3.90108 46.6289C5.38838 46.9043 6.46561 46.3932 6.67677 45.2364C6.88793 44.0766 6.09531 43.2289 4.58047 42.9534Z" fill="white"/>
<path d="M1.71289 40.334L2.08931 39.1833L6.95825 39.7127C7.15105 39.7311 7.27652 39.7617 7.39893 39.7923V39.7648C7.28876 39.7219 7.18165 39.6607 7.00415 39.5597L2.7993 36.9891L3.16041 35.8506L8.0875 36.2301C8.2803 36.2362 8.40577 36.2668 8.52818 36.2974V36.2699C8.41801 36.224 8.30784 36.1812 8.13341 36.0802L3.88265 33.6595L4.25906 32.5088L10.0186 36.0067L9.59623 37.3226L4.69669 36.8911C4.55897 36.8881 4.4488 36.8575 4.31109 36.8269V36.8697C4.4335 36.9156 4.52837 36.9707 4.65078 37.0442L8.88624 39.5628L8.46392 40.8787L1.75573 40.3432L1.71289 40.334Z" fill="white"/>
<path d="M4.90234 31.0797L5.50216 29.8494L10.4354 29.4944C10.7812 29.4608 11.0995 29.47 11.3626 29.4914C11.1454 29.3751 10.9128 29.271 10.5976 29.1241L6.74771 27.2543L7.21593 26.2842L13.1162 29.1364L12.5317 30.3391L7.55563 30.7063C7.20981 30.7247 6.93132 30.7308 6.64366 30.7094C6.87624 30.8134 7.10882 30.9297 7.43627 31.0889L11.2739 32.9465L10.8057 33.9166L4.9054 31.0644L4.90234 31.0797Z" fill="white"/>
<path d="M13.9696 24.4724L14.2175 23.4013C14.9428 23.6706 15.7324 23.5941 16.3506 22.78C16.7515 22.2384 16.9228 21.5773 16.3781 21.1642C15.864 20.7786 15.457 20.9592 14.9061 21.4427L14.1992 22.0609C13.4065 22.7586 12.5558 22.9728 11.6622 22.2996C10.7533 21.611 10.7165 20.4359 11.604 19.2423C12.3507 18.2386 13.3576 17.752 14.3981 18.1804L14.2328 19.2423C13.4922 18.9608 12.8251 19.1352 12.3079 19.8269C11.8795 20.3961 11.8642 20.9775 12.2957 21.305C12.7302 21.6202 13.1189 21.562 13.685 21.0785L14.4226 20.4328C15.258 19.7075 16.0813 19.426 17.0177 20.1268C17.9113 20.8 18.1164 22.0211 17.1126 23.3523C16.1822 24.5856 15.0132 24.8733 13.9849 24.4448L13.9696 24.4724Z" fill="white"/>
<path d="M14.3154 16.0047L15.4936 14.8326L19.7658 17.033C20.0657 17.1921 20.1881 17.2656 20.3779 17.4216C20.231 17.2105 20.1514 17.085 19.9923 16.7882L17.8378 12.5129L19.0314 11.3408L23.6402 15.9986L22.8598 16.7667L19.5026 13.3606C19.3129 13.177 19.166 13.0056 19.0191 12.822H19.0038C19.0956 12.9628 19.2823 13.2719 19.3741 13.4555L21.6479 17.9694L20.8951 18.71L16.3934 16.3934C16.2006 16.3046 15.916 16.118 15.7936 16.017L15.766 16.0445C15.9435 16.1883 16.1026 16.3444 16.3077 16.528L19.6771 19.9341L18.9395 20.6625L14.3307 15.9925L14.3154 16.0047Z" fill="white"/>
<path d="M26.6668 11.751L24.5675 13.2168L25.0755 14.9735L24.0901 15.6682L22.3457 8.90182L23.4015 8.17041L29.1457 12.1519L28.1603 12.8466L26.6944 11.7724L26.6668 11.751ZM25.8926 11.1909L23.9921 9.81379C23.8146 9.68526 23.6402 9.55673 23.4382 9.34251C23.5545 9.62099 23.6188 9.81685 23.6831 10.0403L24.3165 12.2988L25.9079 11.194L25.8926 11.1909Z" fill="white"/>
<path d="M30.6236 8.49464L29.5861 8.99347L30.7398 11.3621L29.6749 11.8885L26.8135 5.99131L29.1821 4.83758C30.6939 4.10311 31.609 4.63866 32.0803 5.60571C32.42 6.30652 32.3863 7.14811 31.6335 7.82137L34.2561 9.64531L33.0779 10.2237L30.6327 8.48546L30.6236 8.49464ZM29.1944 8.20697L30.3145 7.65612C31.1132 7.26134 31.2234 6.71048 30.9479 6.15045C30.6725 5.59041 30.1798 5.34253 29.3811 5.73731L28.261 6.28816L29.1944 8.20697Z" fill="white"/>
<path d="M37.2614 2.8453L35.3793 3.46042L37.0931 8.77311L35.9639 9.1434L34.2501 3.83072L32.368 4.44584L32.0742 3.52469L36.9829 1.93945L37.2767 2.8606L37.2614 2.8453Z" fill="white"/>
<path d="M43.2227 6.52056L43.3328 7.44478L39.0515 7.98339L38.2344 1.47719L42.4607 0.947754L42.5708 1.87197L39.535 2.2545L39.7615 4.04478L42.6443 3.67754L42.7575 4.58645L39.8747 4.95369L40.1165 6.90004L43.2227 6.50832V6.52056Z" fill="white"/>
<path d="M47.0115 4.51011L45.8608 4.53153L45.9036 7.16339L44.7132 7.18175L44.6152 0.632706L47.2593 0.589862C48.9486 0.56538 49.5362 1.43145 49.5576 2.51479C49.5668 3.30435 49.1751 4.048 48.208 4.33873L49.8086 7.10525L48.4926 7.11749L47.0115 4.51011ZM45.8424 3.64404L47.088 3.62874C47.9877 3.61038 48.3121 3.1544 48.2968 2.5454C48.2815 1.92109 47.9387 1.49265 47.0543 1.51101L45.8088 1.52631L45.8424 3.65935V3.64404Z" fill="white"/>
</svg>
