<svg width="181" height="181" viewBox="0 0 181 181" fill="none" xmlns="http://www.w3.org/2000/svg">
<g clip-path="url(#clip0_9_402)">
<g clip-path="url(#clip1_9_402)">
<path d="M117.119 140.523C87.0405 140.523 95.2352 56.2071 120.151 56.2071L60.23 55.4019C85.1458 55.4019 93.8142 140.523 63.7352 140.523H117.119Z" fill="#FFECDE"/>
<path fill-rule="evenodd" clip-rule="evenodd" d="M87.6561 25.986C87.2298 26.0333 85.5245 26.1754 83.9613 26.3175C61.1771 28.2123 45.0719 36.3123 34.1298 51.3281C31.714 54.6438 31.714 54.4544 34.035 54.5017C35.0771 54.5017 37.8719 54.5017 40.2403 54.5491C42.6087 54.5965 46.1613 54.6438 48.1508 54.7386C50.1403 54.8333 55.8245 54.9754 60.7982 55.0702C65.7719 55.1649 70.414 55.2596 71.1245 55.307C71.835 55.3544 77.6613 55.4491 84.1508 55.5438C93.5771 55.6386 96.0877 55.7807 96.8456 56.0175C97.935 56.3965 111.009 56.3017 111.767 55.9228C112.003 55.7807 114.182 55.7807 117.498 55.8754C122.661 56.0649 133.84 56.0175 139.098 55.7807C140.519 55.7333 143.646 55.5912 146.014 55.4965C151.082 55.307 150.988 55.3544 149.946 53.2228C142.319 37.7333 126.024 28.9228 100.303 26.3649C96.7508 26.0333 89.3613 25.7965 87.6561 25.986ZM68.5666 138.723C68.4719 138.818 64.0666 138.865 58.8087 138.865C53.5508 138.865 47.6298 138.96 45.735 139.054C43.8403 139.149 39.6719 139.339 36.4982 139.433C33.3245 139.528 30.7666 139.623 30.7666 139.623C31.0034 141.612 36.5455 153.123 38.5824 155.823C41.0929 159.233 42.5613 160.323 48.1982 163.165C57.9561 168.091 101.677 170.033 118.872 166.291C125.693 164.823 133.272 160.986 137.061 157.102C140.519 153.549 146.346 143.744 147.198 140.049L147.388 139.339L130.193 139.433C120.719 139.481 112.903 139.575 112.761 139.67C112.43 139.86 89.4087 139.339 82.0192 138.912C77.3298 138.723 68.7087 138.581 68.5666 138.723Z" fill="#0F6EFD"/>
<path fill-rule="evenodd" clip-rule="evenodd" d="M32.093 54.2175C36.3087 46.2596 47.014 37.1175 57.3403 32.6175C66.2456 28.7333 75.7666 36.5491 73.9193 46.2596C73.4456 48.7228 71.1245 52.7491 69.0403 54.6912L68.4245 55.2596L60.2298 55.1649C55.7298 55.1175 49.9035 54.9754 47.2508 54.8807C44.6456 54.7386 41.2824 54.6438 39.814 54.6912C32.093 54.7386 31.8087 54.7386 32.093 54.2175ZM111.388 47.3017C118.588 44.6017 123.514 43.4175 129.435 42.8965C130.003 42.8491 133.177 42.8017 136.493 42.8017H142.509L143.646 44.0333C146.109 46.6386 151.177 54.407 150.656 55.0702C150.23 55.5912 149.425 55.5912 148.193 55.6386C148.051 55.6386 147.909 55.6386 147.719 55.6386C146.393 55.6859 144.782 55.7807 144.167 55.828C143.503 55.8754 136.019 55.9702 127.446 56.0175C118.919 56.0649 111.719 56.1596 111.482 56.207C110.819 56.3965 97.3666 56.4912 97.0351 56.2544C95.4719 55.2123 103.24 50.3333 111.388 47.3017ZM104.898 88.1807C104.567 88.7491 104.946 91.6859 105.561 92.8228C106.556 94.7649 107.551 95.4754 109.256 95.4754C112.288 95.5228 116.314 95.4281 116.74 95.3333C116.977 95.2859 117.735 95.2386 118.351 95.2386H119.535L119.63 93.4859L119.725 91.7333L118.967 91.4017C118.019 90.9754 110.961 89.0807 108.546 88.607C105.419 87.9912 105.04 87.9438 104.898 88.1807ZM107.788 106.133C105.846 107.981 105.135 109.449 104.993 112.149C104.993 112.291 104.993 112.433 104.993 112.528C104.946 113.381 104.898 113.949 105.182 114.139C105.656 114.518 106.982 113.854 110.772 112.054C111.103 111.912 111.435 111.723 111.767 111.581C112.43 111.249 113.046 110.965 113.614 110.681C117.356 108.881 118.256 108.454 118.493 107.791C118.588 107.554 118.588 107.318 118.635 106.986C118.635 106.844 118.635 106.654 118.682 106.465L118.967 105.044L114.04 104.807H109.209L107.788 106.133ZM123.751 147.249C126.025 146.349 128.488 145.449 129.293 145.26C134.314 144.075 140.377 146.491 141.798 150.139C142.319 151.512 137.251 157.718 133.414 160.37C124.319 166.67 114.751 168.565 92.7245 168.565C92.1561 168.565 91.5877 168.565 91.114 168.565C87.7982 168.565 86.6614 168.565 86.0456 168.044C85.714 167.76 85.5245 167.381 85.193 166.812C85.0982 166.623 85.0035 166.433 84.8614 166.244C79.7929 157.433 82.9193 149.523 92.014 148.196C94.0982 147.865 95.1403 148.007 100.682 149.049C102.577 149.428 104.519 149.665 108.403 150.091C112.903 150.565 117.877 149.618 123.751 147.249ZM42.9877 139.244C41.093 139.291 38.6772 139.339 36.0719 139.386C32.9456 139.481 30.4351 139.765 30.4351 139.812C30.6719 141.754 36.0245 152.933 38.2035 156.012C40.193 158.807 42.0877 160.418 45.8772 162.407C49.0508 164.112 49.9508 164.444 53.2193 165.296C54.4982 165.628 55.0193 165.77 55.2087 165.581C55.3508 165.439 55.2087 165.06 55.0193 164.396C52.1298 154.639 56.3929 143.791 63.5456 139.054L62.2666 138.96C61.6982 138.96 47.6298 139.007 47.4403 139.149C47.3456 139.149 45.6403 139.196 42.9877 139.244Z" fill="#009F67"/>
<path fill-rule="evenodd" clip-rule="evenodd" d="M90.6406 12.2965C89.5985 12.8176 89.0774 15.7544 88.8406 21.865C88.7458 24.6123 88.6985 25.6071 88.2248 25.986C87.9406 26.2228 87.4669 26.2228 86.7563 26.2228L96.4669 27.265C96.1827 26.6965 95.8037 26.1281 95.709 26.0334C95.4721 25.8913 95.5669 25.1807 96.4669 19.3544C97.2248 14.6176 97.3195 12.7228 96.8932 12.2492C96.4669 11.9176 91.3985 11.9176 90.6406 12.2965ZM107.835 95.3334C108.072 95.5702 108.309 95.8071 108.404 95.9018C108.546 96.0439 108.877 96.4229 109.351 96.8492C112.193 99.3123 112.051 102.486 108.735 105.328L118.92 105.139L121.477 105.044C128.251 104.854 130.241 104.333 133.698 101.965C136.304 100.212 136.398 99.6913 134.456 98.7913C128.583 95.9965 127.351 95.6176 122.851 95.4281L119.583 95.286H107.835V95.3334Z" fill="#FE6A01"/>
<path d="M68.7086 94.4807C66.435 93.107 65.4402 92.207 65.4402 91.5438C65.4402 90.8333 68.6613 90.9281 72.356 91.6859C72.6876 91.7333 73.3034 91.8754 73.7297 91.9228C74.156 91.9702 74.7718 92.0649 75.1034 92.1596C75.435 92.207 79.035 92.7281 83.0613 93.3438C87.135 93.9123 91.1613 94.5754 92.0613 94.8123C94.7613 95.4281 96.8455 95.8544 97.6507 95.8544C99.9718 95.9017 104.377 97.607 104.945 98.6965C106.982 102.77 102.53 106.039 92.2981 107.981C90.1665 108.407 86.1876 109.307 83.535 110.018C80.8823 110.728 77.5192 111.628 76.0507 112.007C70.6034 113.475 66.1507 114.091 66.1507 113.428C66.1507 113.191 69.8455 111.06 72.5455 109.686C76.2402 107.839 76.0507 107.791 66.2455 107.744C54.0718 107.696 52.7928 106.939 61.6507 105.044C62.9297 104.76 65.2981 104.239 66.9086 103.907C71.2192 103.007 71.1718 102.865 65.5823 101.302C55.1613 98.3649 55.4455 97.3702 66.9086 97.3702C73.635 97.3228 73.5876 97.3702 68.7086 94.4807Z" fill="#FE6A01"/>
</g>
</g>
<defs>
<clipPath id="clip0_9_402">
<rect width="180" height="180" fill="white" transform="translate(0.592773 0.312378)"/>
</clipPath>
<clipPath id="clip1_9_402">
<rect width="180" height="180" fill="white" transform="translate(0.592773 0.312378)"/>
</clipPath>
</defs>
</svg>
