<svg width="181" height="181" viewBox="0 0 181 181" fill="none" xmlns="http://www.w3.org/2000/svg">
<g clip-path="url(#clip0_9_74)">
<g clip-path="url(#clip1_9_74)">
<g clip-path="url(#clip2_9_74)">
<path d="M88.993 155.211L79.4246 154.88C83.214 134.654 53.7035 119.211 48.6824 116.464C41.5772 112.58 38.8772 104.859 41.9088 98.9852C44.893 93.2062 50.4351 90.9325 57.0667 94.5325C63.3193 97.7062 66.7772 88.8483 60.4298 82.501C54.414 76.4852 44.6088 68.1957 49.2035 58.4852C54.5088 47.3536 70.614 56.3536 73.7403 52.1852C77.0561 47.7799 70.5667 35.7009 68.5298 30.6325C65.1193 22.0588 66.0193 5.24305 90.5561 5.14832C115.093 5.24305 117.461 26.0378 114.004 34.6115C112.44 38.4483 112.109 42.522 111.635 46.6431C111.398 48.9167 111.303 51.522 112.961 53.0852C114.525 54.5536 116.988 54.5536 119.025 53.9852C121.109 53.4167 123.098 52.4694 125.23 52.3746C128.972 52.2325 132.43 55.122 133.709 58.6273C134.988 62.1325 134.419 66.1588 132.951 69.6167C131.482 73.0746 129.161 76.1062 126.888 79.0431C123.856 82.9746 120.825 86.9062 117.793 90.8378C116.704 92.3062 115.519 93.7746 115.093 95.5273C114.619 97.2799 114.998 99.4115 116.467 100.501C117.982 101.638 120.067 101.354 121.867 101.827C126.556 103.011 128.451 109.122 126.982 113.717C125.467 118.311 121.677 121.722 118.077 124.943C107.798 134.227 96.9035 143.938 88.993 155.211Z" fill="#2D7323"/>
<path d="M94.4876 49.2009C94.8192 61.5167 95.9087 103.296 93.9666 123.096C91.2192 150.854 88.8981 166.438 81.6034 177.048C75.8245 185.527 65.1666 175.438 70.2824 168.901C77.5297 158.575 79.4718 144.885 83.1666 122.243C86.7192 100.406 87.5718 62.6061 87.8087 49.2956C87.9034 45.2693 94.3455 44.5114 94.4876 49.2009Z" fill="#0D3A25"/>
<path d="M154.646 92.543C157.44 92.543 156.872 108.932 163.267 117.269C168.809 124.517 180.603 125.085 180.603 129.727C180.603 134.132 170.23 133.848 164.782 140.717C158.056 149.196 158.482 166.58 154.835 166.58C151.614 166.58 151.661 150.617 145.646 142.327C139.677 134.038 127.693 133.422 127.693 130.485C127.693 127.69 139.677 124.422 146.498 116.275C153.603 107.843 152.277 92.543 154.646 92.543Z" fill="#FC90B9"/>
<path d="M21.6824 45.8851C23.7666 45.8851 22.7245 60.3325 27.5561 67.2957C31.7245 73.3115 41.2455 73.0272 41.2455 76.9114C41.2455 80.6062 34.1403 81.0799 29.0245 87.1904C23.1982 94.1536 24.6192 107.606 21.8718 107.606C19.4561 107.606 19.4561 94.2957 14.9561 87.3799C10.5034 80.4641 1.45605 79.2799 1.45605 76.8167C1.45605 74.4957 12.0192 72.743 15.9508 65.8272C20.3087 58.1062 19.9297 45.8851 21.6824 45.8851Z" fill="#FC90B9"/>
<path d="M148.251 1.40613C149.909 1.40613 150.146 12.064 153.888 16.9903C157.156 21.2535 170.088 21.1588 170.088 23.9061C170.088 26.5114 157.014 24.9956 154.409 29.4482C151.093 35.0851 150.525 44.9851 148.393 44.9851C146.498 44.9851 146.498 34.943 142.993 30.064C139.488 25.1851 128.214 25.6588 128.214 23.9061C128.214 22.2482 139.535 23.0061 143.94 16.8956C147.683 11.6377 146.83 1.40613 148.251 1.40613Z" fill="#FC90B9"/>
</g>
</g>
</g>
<defs>
<clipPath id="clip0_9_74">
<rect width="180" height="180" fill="white" transform="translate(0.982422 0.932495)"/>
</clipPath>
<clipPath id="clip1_9_74">
<rect width="180" height="180" fill="white" transform="translate(0.982422 0.932495)"/>
</clipPath>
<clipPath id="clip2_9_74">
<rect width="180" height="180" fill="white" transform="translate(0.982422 0.932495)"/>
</clipPath>
</defs>
</svg>
