<svg width="181" height="181" viewBox="0 0 181 181" fill="none" xmlns="http://www.w3.org/2000/svg">
<path d="M110.605 60.373L116.29 60.1835L122.826 59.5677L126.711 59.4256C128.842 59.3783 135.995 59.3309 142.579 59.3783L153.805 59.5677C154.611 59.5677 155.179 59.994 155.132 61.3204C155.037 61.3204 154.942 77.094 154.942 96.373C154.942 116.457 154.753 135.31 154.611 140.52C154.421 145.541 154.184 155.062 154.042 161.694C153.758 174.578 153.711 175.668 153.284 176.094C152.621 176.757 134.716 176.947 84.2685 176.757C70.437 176.71 55.9422 176.757 52.1054 176.852C48.2685 176.947 39.2212 177.136 32.0212 177.326C24.8212 177.468 17.6212 177.705 16.058 177.799L13.2159 177.989L12.9791 170.41C12.6949 161.457 12.6949 158.473 13.0264 151.273L13.2633 145.92L13.9738 145.589C14.8264 145.162 19.0896 144.736 22.3106 144.736H24.6791L33.5843 144.357L34.6738 144.405C35.2896 144.452 39.0317 144.405 43.0106 144.262L50.258 144.073L50.4475 131.994C50.5422 125.362 50.7791 118.684 50.9212 117.12C51.0633 115.557 51.3001 112.668 51.3948 110.631L51.5843 106.936L52.437 106.794C53.6212 106.605 62.858 106.084 64.9896 106.131L78.3001 105.231C78.3001 105.373 91.137 105.278 93.6949 105.136L95.3054 105.041V97.0835V89.1256C95.3054 84.5309 97.0106 68.5677 97.0106 65.6783C97.0106 60.5625 96.7264 60.894 101.369 60.7519C103.311 60.6098 107.479 60.4677 110.605 60.373Z" fill="#FE6A01"/>
<path fill-rule="evenodd" clip-rule="evenodd" d="M154.137 36.1204C158.163 35.0783 162.474 33.9414 166.737 36.7362C172.374 40.4783 170.526 45.5467 168.726 50.473C168.158 52.0835 167.59 53.6467 167.258 55.1625C166.405 59.2362 161.574 59.1414 161.574 59.1414H157.121C155.842 59.1414 154.8 58.0993 154.658 56.8204C154.042 52.273 150.963 42.6572 135.805 43.6046C122.258 44.4572 124.863 59.852 124.863 59.852L116.858 60.0414L118.09 46.873C117.995 45.2151 117.616 43.6993 115.721 43.2256C114.537 42.9414 113.826 43.273 113.021 43.652C111.979 44.1256 110.795 44.6941 108.426 43.9835C106.674 43.4625 105.726 42.3256 104.779 41.1888C103.405 39.5309 102.032 37.9204 98.3369 38.1099C93.7895 38.3941 93.079 41.8046 92.9842 51.752C92.9369 56.6309 89.0053 60.5151 84.1264 60.5151C79.4842 60.5151 75.6 56.9151 75.2685 52.3204C74.5106 41.8993 76.1685 33.9414 87.0632 32.7099C100.658 31.1941 112.311 34.0362 118.09 39.4362C118.468 32.7572 116.811 28.4941 114.016 27.3099C112.642 26.7414 111.268 26.9783 109.8 27.2151C108.047 27.4993 106.153 27.8309 103.974 26.8835C101.605 25.8414 101.132 24.1835 100.658 22.6677C100.184 21.0099 99.7106 19.5888 96.9632 19.4941C94.4527 19.3993 93.3158 20.8204 92.1316 22.3362C91.1369 23.6151 90.0948 24.9414 88.1527 25.4625C86.3053 25.9835 85.0263 25.4151 83.9369 24.9414C83.1316 24.6099 82.4685 24.2783 81.7106 24.4677C80.479 24.752 80.0527 25.7941 79.579 27.0256C78.9158 28.7783 78.1106 30.7677 74.6527 31.0046C72 31.1941 69.0632 29.252 69.0632 22.4783C69.0158 11.5362 79.4842 2.15722 92.2263 2.96249C118.563 4.66775 121.358 28.873 121.358 28.873C124.058 10.873 135.19 4.24143 142.863 4.24143C146.605 4.24143 147.979 4.85722 149.495 5.52038C151.247 6.32564 153.237 7.17827 159.537 7.17827C164.416 7.17827 166.358 10.5888 165.363 17.173C165.174 18.3099 165.221 19.4467 165.458 20.5835C166.216 24.0414 166.642 31.6204 156.079 31.6204C149.021 31.6204 147.268 29.3467 147.268 25.3204C147.268 21.2941 144.474 17.552 138.363 17.552C129.932 17.552 125.1 22.5256 128.084 28.8256C129.553 31.952 125.147 43.652 125.147 43.652C129.932 35.1256 140.447 36.2625 146.037 36.8783C146.747 36.973 147.363 37.0204 147.884 37.0677C149.732 37.3046 151.911 36.7362 154.137 36.1204ZM63.379 106.368L74.5106 106.036C74.6527 105.231 74.7948 104.378 74.9369 103.431C76.3579 94.7151 78.6316 80.8835 86.0211 80.6467C89.0527 80.5046 89.3842 82.6362 89.6685 84.8625C90 87.0888 90.3316 89.3625 93.4579 89.4099C96.0158 89.4572 97.9106 91.0678 97.9106 94.8099C97.8632 98.552 102.884 100.873 107.337 97.9835C109.705 96.4204 111.363 92.8677 109.658 88.7467C108.9 86.9467 107.763 85.952 106.626 85.052C105.158 83.8204 103.832 82.6835 103.926 80.0309C103.974 77.3783 103.405 74.0625 97.1527 71.9783C90.4737 69.752 75.0316 70.6993 72 94.7625C72 94.7625 72.0948 80.5993 73.9421 74.4888C73.9895 74.3467 74.0369 74.252 74.0369 74.1098C74.4632 72.6414 74.9842 71.0309 74.3211 69.3256C73.3737 66.8625 71.7158 66.4362 70.0106 66.0099C68.5421 65.6309 67.0737 65.2993 66.079 63.6414C64.3263 60.8467 63.7579 58.3835 63.1895 56.1572C62.5737 53.6467 62.0527 51.4678 60.0158 49.5256C54.4263 44.173 44.9053 51.9414 48.6474 58.9993C49.5 60.6099 50.779 61.7467 51.8685 62.7414C52.9579 63.6888 53.8579 64.5414 54.1421 65.5835C54.379 66.5309 54.2369 67.5256 54.0948 68.6625C53.8579 70.6046 53.5737 72.8309 55.2316 75.152C57.6948 78.6099 61.7211 78.6099 64.9895 78.5625C65.179 78.5625 65.4158 78.5625 65.6053 78.5625L66.1263 96.1835C62.3842 87.5151 51.3 70.0362 40.1211 67.7625C36.379 67.0046 31.6895 67.2414 29.1316 71.4099C24.5369 78.9888 31.6421 86.0467 39.1264 83.7256C39.2685 83.6783 39.4106 83.6309 39.5053 83.5835C42.8685 82.5414 48.3632 80.7888 49.5474 85.0993C49.6895 85.6204 49.7842 86.0941 49.9263 86.5204C50.7316 89.7414 50.8737 90.3572 57.4106 92.6309C62.3369 94.2888 63.379 101.631 63.379 106.368ZM24.6316 144.973L33.4421 144.878C33.679 142.462 33.9632 140.094 35.0527 137.915C35.3842 137.205 35.8579 136.541 36.5211 136.162C37.2316 135.784 38.179 135.878 38.6053 136.541C38.7474 136.731 38.8421 137.015 38.8895 137.252C38.9369 137.394 38.9842 137.536 39.0316 137.678C39.4106 138.578 40.4053 139.099 41.3527 139.052C42.3 139.005 43.2 138.436 43.7685 137.678C44.3369 136.873 44.5263 135.926 44.5263 134.931C44.5263 134.457 44.4316 133.984 44.1948 133.557C43.8632 133.036 43.2948 132.657 42.679 132.562C42.0632 132.468 41.4 132.61 40.8316 132.847C40.1685 131.52 38.4158 130.952 36.9474 131.236C35.479 131.52 34.2474 132.515 33.3948 133.747C32.5421 134.978 31.7842 136.968 31.2632 138.389L31.3106 129.531C32.7316 129.531 33.4895 128.536 33.4421 127.447C33.4421 126.973 33.2053 126.499 32.9685 126.073C32.7316 125.599 32.4474 125.078 32.4948 124.557C32.5421 123.799 33.1579 123.231 33.7737 122.71C33.9158 122.568 34.1053 122.426 34.2474 122.284C34.8158 121.715 35.2421 121.052 35.5263 120.294C35.8579 119.299 35.9053 118.115 35.2421 117.31C34.7685 116.694 34.0106 116.41 33.2527 116.315C31.0263 116.031 27.9948 117.262 27.9948 121.431V138.626C26.1474 138.626 26.1 134.268 26.0527 132.515C26.0527 132.231 26.0527 132.041 26.0527 131.899C26.0053 130.952 25.8158 129.957 25.2948 129.199C24.7737 128.394 23.8263 127.826 22.879 127.92C22.5474 127.968 22.2632 128.062 21.9316 128.205C21.4106 128.394 20.9369 128.584 20.4632 128.441C20.0842 128.347 19.8 128.062 19.5158 127.826C19.3737 127.684 19.2316 127.589 19.0895 127.447C18.2842 126.831 17.1474 126.736 16.2 127.068C15.2527 127.399 14.4474 128.157 13.879 128.962C12.6474 130.81 12.4579 133.32 13.4053 135.31C13.6895 135.926 14.1158 136.541 14.7316 136.873C15.3474 137.205 16.1053 137.252 16.7685 137.015C17.4316 136.778 18 136.305 18.4263 135.689C18.6158 135.405 18.7579 135.168 18.9 134.884C19.0895 134.505 19.279 134.173 19.5158 133.841C19.9895 133.273 20.7 132.847 21.4106 133.084C21.979 133.273 22.2632 133.841 22.5474 134.362C24.0158 137.773 24.3474 141.42 24.6316 144.973Z" fill="#0D3A25"/>
</svg>
