<svg width="181" height="181" viewBox="0 0 181 181" fill="none" xmlns="http://www.w3.org/2000/svg">
<g clip-path="url(#clip0_9_253)">
<g clip-path="url(#clip1_9_253)">
<path fill-rule="evenodd" clip-rule="evenodd" d="M98.4909 26.4804C96.2646 26.5751 94.2278 26.6225 92.4278 26.6225C88.4962 26.6225 84.2804 26.3383 79.9225 26.054C64.3857 25.0593 46.5751 23.8751 30.7067 34.1067C17.112 42.9172 11.7594 64.5646 16.8751 88.9119C21.9909 113.307 44.4909 147.791 64.3857 173.891H98.4909V150.112H107.112V138.222H98.4909V126.333H107.112V114.633V114.444V102.744H98.4909V90.854H107.112V78.9646V67.0751H98.4909V55.1856H107.112V43.2961V31.4067H98.4909V26.4804ZM154.67 43.2961H142.78V55.1856H154.67V43.2961ZM119.001 55.1856V43.2961H130.891V55.1856H119.001ZM119.001 55.1856H107.112V67.0751V78.9646H119.001V67.0751V55.1856ZM154.67 55.1856H166.559V67.0751H154.67V55.1856ZM142.78 67.0751H130.891H119.001V78.9646H130.891H142.78V67.0751ZM142.78 67.0751H154.67V78.9646H142.78V67.0751ZM119.001 78.9646V90.854H130.891V78.9646H119.001ZM107.112 90.854H119.001V102.744H107.112V90.854ZM166.559 90.854H154.67V102.744H166.559V90.854ZM142.78 102.744H130.891H119.001V114.633H130.891H142.78V102.744ZM107.112 114.444H119.001V126.333H107.112V114.444ZM166.559 114.444H154.67V126.333H166.559V114.444ZM142.78 126.333H154.67V138.222H142.78V126.333ZM107.112 138.222H119.001V150.112V162.001H107.112V150.112V138.222ZM142.78 138.222H130.891V150.112H142.78V138.222ZM119.001 162.001H107.112V173.891H119.001V162.001ZM119.001 173.891V162.001H130.891V173.891H119.001ZM119.001 31.4067H107.112V43.2961H119.001V31.4067ZM119.001 31.4067H130.891H142.78V43.2961H130.891H119.001V31.4067ZM154.67 31.4067H166.559V43.2961H154.67V31.4067Z" fill="#FF0D90"/>
<path fill-rule="evenodd" clip-rule="evenodd" d="M95.27 55.1857H107.159V67.0751H95.27V55.1857ZM130.891 55.1857H142.781V67.0751H130.891V55.1857ZM142.781 78.9646H130.891V90.8541H142.781V78.9646ZM154.67 78.9646H166.56V90.8541H154.67V78.9646ZM107.112 90.8541H95.2227V102.744H107.112V90.8541ZM130.891 102.744V90.8541H142.781V102.744H130.891ZM119.002 102.744H107.112V114.633H119.002V102.744ZM142.781 102.744H154.67V114.633H142.781V102.744ZM130.891 114.444H119.002V126.333H130.891V138.223H142.781V126.333H130.891V114.444ZM95.27 126.333H107.159V138.223H95.27V126.333ZM142.781 150.112V162.001H130.891H119.002V150.112H130.891H142.781ZM95.27 162.001H107.159V173.891H95.27V162.001Z" fill="#FC90B9"/>
<path fill-rule="evenodd" clip-rule="evenodd" d="M119.001 43.2961H107.112V55.1856H119.001V43.2961ZM72.8172 54.9014C73.7645 55.1382 74.8066 54.6172 75.4224 53.8119C75.9908 53.0067 76.1803 51.9646 76.2277 50.9698C76.2277 50.0225 76.1329 49.1225 75.8961 48.2225C75.7066 47.5119 75.4224 46.8488 74.9487 46.2804C74.475 45.7119 73.8119 45.333 73.1014 45.333C72.675 45.333 72.2487 45.4751 71.8224 45.7119C70.0698 46.7067 69.975 48.6961 70.0698 50.4961C70.1645 52.0119 71.1593 54.5225 72.8172 54.9014ZM37.1487 61.6751C36.3435 60.254 35.7277 58.7382 35.7277 57.1277C35.775 54.8067 37.954 51.7277 40.4172 53.8119C41.0803 54.3804 41.4593 55.1856 41.6487 55.9909C41.8382 56.8435 41.8382 57.6961 41.7435 58.5488C41.6961 59.3067 41.6014 60.0172 41.4593 60.7277C41.3645 61.3435 41.2224 62.0067 40.8908 62.5277C40.5593 63.0488 39.9908 63.4751 39.3277 63.5225C38.8066 63.5225 38.3329 63.2856 37.954 62.9067C37.6224 62.5751 37.3856 62.1014 37.1487 61.6751ZM76.3224 110.465C75.2803 110.417 74.5224 109.422 74.0961 108.475C73.3382 106.817 73.054 104.449 73.4803 102.649C73.7172 101.654 74.3803 100.707 75.3277 100.47C75.6593 100.375 76.0382 100.375 76.3698 100.422C76.7961 100.47 77.2224 100.517 77.6014 100.754C78.3119 101.18 78.6435 102.033 78.8329 102.838C79.2119 104.449 79.2119 106.107 78.8803 107.67C78.7382 108.333 78.5014 109.044 78.075 109.565C77.6487 110.086 76.9856 110.465 76.3224 110.465ZM54.9119 129.601C55.3856 130.265 56.0961 130.833 56.9014 130.928C57.9435 131.07 58.9856 130.407 59.554 129.507C60.1224 128.607 60.2645 127.517 60.2172 126.475C60.1698 125.338 59.8856 124.201 59.4593 123.207C59.2224 122.638 58.8908 122.07 58.3698 121.738C57.8014 121.359 57.0435 121.312 56.3803 121.359C55.8593 121.407 55.2908 121.549 54.8172 121.833C52.4961 123.396 53.6329 127.754 54.9119 129.601ZM83.6172 135.286C84.4224 137.559 84.2803 140.165 83.1908 142.296H79.8277C78.0277 139.833 76.8908 136.138 78.2172 133.391C78.8803 133.344 79.5435 133.344 80.2066 133.296H80.254C80.9171 133.249 81.6277 133.249 82.2908 133.201C82.954 133.722 83.3803 134.528 83.6172 135.286ZM43.7803 98.5277H38.7593C38.8066 100.991 39.375 103.454 40.4172 105.68C40.7014 106.249 40.9856 106.817 41.4593 107.244C41.9329 107.67 42.5961 107.907 43.2119 107.812C43.9224 107.67 44.4435 107.054 44.6803 106.391C44.9172 105.728 44.8698 104.97 44.8224 104.259C44.6803 102.27 44.3014 100.375 43.7803 98.5277ZM77.3645 79.3909H81.6277C82.054 78.3961 82.3856 77.3067 82.4803 76.2172C82.575 75.2225 82.575 74.2277 82.3382 73.233C82.1014 72.2382 81.675 71.2909 80.9172 70.6277C80.1593 69.9172 79.0224 69.4909 78.0277 69.8698C77.2698 70.154 76.7014 70.8646 76.4172 71.6225C76.1329 72.3804 76.1329 73.233 76.1803 74.0382C76.3224 75.933 76.7014 77.6856 77.3645 79.3909ZM52.7803 77.4014C51.6435 77.4961 50.7908 78.5383 50.5066 79.6751C50.2224 80.8119 50.5066 81.9488 50.8382 83.0382C51.2645 84.3172 51.7856 85.5961 52.4014 86.7804H55.7172C56.3329 86.0225 56.5698 85.1225 56.7119 84.1751C56.9014 82.6593 56.9487 81.0961 56.3329 79.6751C55.7645 78.3014 54.2961 77.2593 52.7803 77.4014ZM29.7593 83.5593C29.1908 84.3646 28.1487 84.8856 27.154 84.6488C25.4961 84.2225 24.5014 81.7593 24.4066 80.1961C24.2645 78.3961 24.4066 76.4067 26.1593 75.4119C26.5382 75.1751 26.9645 75.033 27.4382 75.033C28.1487 75.033 28.8593 75.4119 29.2856 75.9804C29.7593 76.5488 30.0435 77.2119 30.2329 77.9225C30.4698 78.8225 30.6119 79.7698 30.5645 80.6698C30.5172 81.7119 30.3277 82.754 29.7593 83.5593ZM64.2908 157.217H68.0329C67.9856 155.891 67.654 153.333 67.3698 152.007C67.1803 151.154 66.9435 150.301 66.5171 149.544C66.0908 148.786 65.4277 148.122 64.6224 147.791C63.0593 147.175 61.0698 148.122 60.5961 149.78C60.3119 150.68 60.5014 151.675 60.8803 152.575C61.2593 153.428 61.8277 154.233 62.3961 154.991C62.6803 155.37 63.0119 155.749 63.3435 156.128C63.675 156.412 64.0066 156.791 64.2908 157.217ZM142.78 55.1856H154.67V67.0751H142.78V55.1856ZM119.001 78.9646H107.112V90.854H119.001V78.9646ZM107.112 126.333H119.001V138.222H107.112V126.333ZM130.891 138.222H119.001V150.112H130.891V138.222ZM95.2698 150.112H107.159V162.001H95.2698V150.112Z" fill="#FBFAF9"/>
<path fill-rule="evenodd" clip-rule="evenodd" d="M95.27 19.5172H107.159V31.4067H95.27V19.5172ZM119.002 19.5172H130.891V31.4067H119.002V19.5172Z" fill="#009F67"/>
<path fill-rule="evenodd" clip-rule="evenodd" d="M95.27 7.62769H107.159V19.5172H95.27V7.62769ZM107.112 19.5172H119.002V31.4066H107.112V19.5172Z" fill="#2D7323"/>
<path d="M98.4912 7.58032H90.2018C90.2018 14.9698 92.3807 26.954 81.2018 26.1014C67.6544 25.0593 46.5281 23.2119 30.6597 34.1066C36.7228 42.1119 55.386 36.9487 55.386 36.9487L88.8755 27.5698C88.8755 27.5698 90.5807 31.4066 95.2228 31.4066L98.4912 7.58032Z" fill="#0D3A25"/>
</g>
</g>
<defs>
<clipPath id="clip0_9_253">
<rect width="180" height="180" fill="white" transform="translate(0.722656 0.522461)"/>
</clipPath>
<clipPath id="clip1_9_253">
<rect width="180" height="180" fill="white" transform="translate(0.722656 0.522461)"/>
</clipPath>
</defs>
</svg>
